<svg xmlns="http://www.w3.org/2000/svg" width="1200" height="960" viewBox="0 0 600 480" role="img" aria-label="Al-&apos;Asr — Verse Shell"><title>Al-&apos;Asr — Verse Shell</title><desc>Verse Shell generated from all 14 written words in surah 103.</desc><metadata>{&quot;surah&quot;:103,&quot;name&quot;:&quot;Al-&apos;Asr&quot;,&quot;method&quot;:&quot;Verse Shell&quot;,&quot;words&quot;:14,&quot;letters&quot;:71,&quot;selectedVerse&quot;:null,&quot;mapping&quot;:&quot;R=40+2L; A=.25*sigma/(mu+sigma); r=R(1+A*cos(W*theta)); phi=2*pi*(i-1)/V; z=12*(i-1); projection=(x,.42*y-.907*(z-6*(V-1)))&quot;,&quot;source&quot;:&quot;https://api.quran.com/api/v4/quran/verses/uthmani&quot;,&quot;counting&quot;:&quot;Unicode whitespace words; Unicode L letters except U+0640/U+06E5/U+06E6; no normalization&quot;}</metadata><rect width="600" height="480" fill="#f8f5ec"/><g fill="none" stroke-linecap="round" stroke-linejoin="round"><path d="M387.414,279.13 L387.41,279.473 L387.4,279.815 L387.382,280.158 L387.357,280.5 L387.325,280.843 L387.286,281.185 L387.24,281.527 L387.186,281.869 L387.126,282.21 L387.058,282.552 L386.984,282.893 L386.902,283.234 L386.813,283.574 L386.717,283.915 L386.614,284.254 L386.504,284.594 L386.387,284.933 L386.263,285.272 L386.132,285.61 L385.994,285.947 L385.849,286.285 L385.697,286.621 L385.537,286.957 L385.371,287.293 L385.198,287.627 L385.018,287.962 L384.831,288.295 L384.637,288.628 L384.437,288.96 L384.229,289.291 L384.014,289.622 L383.793,289.951 L383.565,290.28 L383.33,290.608 L383.088,290.936 L382.839,291.262 L382.584,291.587 L382.321,291.912 L382.052,292.235 L381.777,292.558 L381.494,292.879 L381.205,293.199 L380.91,293.519 L380.608,293.837 L380.299,294.154 L379.983,294.47 L379.661,294.785 L379.333,295.098 L378.998,295.411 L378.656,295.722 L378.308,296.032 L377.954,296.34 L377.593,296.648 L377.226,296.954 L376.852,297.258 L376.473,297.561 L376.086,297.863 L375.694,298.163 L375.296,298.462 L374.891,298.76 L374.48,299.056 L374.063,299.35 L373.64,299.643 L373.21,299.934 L372.775,300.224 L372.334,300.512 L371.886,300.799 L371.433,301.084 L370.974,301.367 L370.509,301.648 L370.038,301.928 L369.562,302.206 L369.08,302.483 L368.591,302.757 L368.098,303.03 L367.598,303.301 L367.093,303.57 L366.583,303.837 L366.067,304.102 L365.545,304.366 L365.018,304.627 L364.485,304.887 L363.948,305.144 L363.404,305.4 L362.856,305.653 L362.302,305.905 L361.743,306.155 L361.179,306.402 L360.61,306.647 L360.036,306.891 L359.457,307.132 L358.872,307.371 L358.283,307.608 L357.689,307.843 L357.09,308.075 L356.486,308.306 L355.877,308.534 L355.264,308.76 L354.646,308.983 L354.024,309.205 L353.396,309.424 L352.765,309.64 L352.129,309.855 L351.488,310.067 L350.843,310.277 L350.194,310.484 L349.54,310.689 L348.882,310.892 L348.22,311.092 L347.554,311.29 L346.884,311.485 L346.21,311.678 L345.531,311.868 L344.849,312.056 L344.163,312.241 L343.473,312.424 L342.78,312.604 L342.082,312.782 L341.381,312.957 L340.677,313.13 L339.968,313.3 L339.257,313.467 L338.541,313.632 L337.823,313.794 L337.101,313.954 L336.376,314.111 L335.647,314.265 L334.916,314.416 L334.181,314.565 L333.443,314.711 L332.702,314.855 L331.959,314.995 L331.212,315.133 L330.463,315.269 L329.71,315.401 L328.955,315.531 L328.198,315.658 L327.437,315.782 L326.675,315.903 L325.909,316.022 L325.142,316.138 L324.372,316.251 L323.599,316.361 L322.824,316.468 L322.048,316.573 L321.268,316.674 L320.487,316.773 L319.704,316.869 L318.919,316.962 L318.132,317.052 L317.343,317.139 L316.553,317.223 L315.76,317.305 L314.966,317.383 L314.171,317.459 L313.374,317.532 L312.575,317.601 L311.775,317.668 L310.973,317.732 L310.171,317.793 L309.367,317.851 L308.562,317.906 L307.756,317.958 L306.948,318.007 L306.14,318.054 L305.331,318.097 L304.521,318.137 L303.71,318.174 L302.898,318.209 L302.086,318.24 L301.273,318.269 L300.46,318.294 L299.646,318.316 L298.831,318.336 L298.016,318.352 L297.201,318.366 L296.386,318.376 L295.57,318.384 L294.755,318.388 L293.939,318.39 L293.123,318.388 L292.308,318.384 L291.492,318.376 L290.677,318.366 L289.862,318.352 L289.047,318.336 L288.233,318.316 L287.419,318.294 L286.605,318.269 L285.792,318.24 L284.98,318.209 L284.168,318.174 L283.357,318.137 L282.547,318.097 L281.738,318.054 L280.93,318.007 L280.123,317.958 L279.316,317.906 L278.511,317.851 L277.707,317.793 L276.905,317.732 L276.103,317.668 L275.303,317.601 L274.504,317.532 L273.707,317.459 L272.912,317.383 L272.118,317.305 L271.325,317.223 L270.535,317.139 L269.746,317.052 L268.959,316.962 L268.174,316.869 L267.391,316.773 L266.61,316.674 L265.831,316.573 L265.054,316.468 L264.279,316.361 L263.507,316.251 L262.736,316.138 L261.969,316.022 L261.203,315.903 L260.441,315.782 L259.68,315.658 L258.923,315.531 L258.168,315.401 L257.415,315.269 L256.666,315.133 L255.919,314.995 L255.176,314.855 L254.435,314.711 L253.697,314.565 L252.962,314.416 L252.231,314.265 L251.502,314.111 L250.777,313.954 L250.055,313.794 L249.337,313.632 L248.621,313.467 L247.91,313.3 L247.202,313.13 L246.497,312.957 L245.796,312.782 L245.098,312.604 L244.405,312.424 L243.715,312.241 L243.029,312.056 L242.347,311.868 L241.668,311.678 L240.994,311.485 L240.324,311.29 L239.658,311.092 L238.996,310.892 L238.338,310.689 L237.684,310.484 L237.035,310.277 L236.39,310.067 L235.749,309.855 L235.113,309.64 L234.482,309.424 L233.854,309.205 L233.232,308.983 L232.614,308.76 L232.001,308.534 L231.392,308.306 L230.788,308.075 L230.189,307.843 L229.595,307.608 L229.006,307.371 L228.422,307.132 L227.842,306.891 L227.268,306.647 L226.699,306.402 L226.135,306.155 L225.576,305.905 L225.022,305.653 L224.474,305.4 L223.93,305.144 L223.393,304.887 L222.86,304.627 L222.333,304.366 L221.811,304.102 L221.295,303.837 L220.785,303.57 L220.28,303.301 L219.78,303.03 L219.287,302.757 L218.799,302.483 L218.316,302.206 L217.84,301.928 L217.369,301.648 L216.904,301.367 L216.445,301.084 L215.992,300.799 L215.544,300.512 L215.103,300.224 L214.668,299.934 L214.239,299.643 L213.815,299.35 L213.398,299.056 L212.987,298.76 L212.583,298.462 L212.184,298.163 L211.792,297.863 L211.406,297.561 L211.026,297.258 L210.652,296.954 L210.285,296.648 L209.924,296.34 L209.57,296.032 L209.222,295.722 L208.88,295.411 L208.545,295.098 L208.217,294.785 L207.895,294.47 L207.579,294.154 L207.271,293.837 L206.968,293.519 L206.673,293.199 L206.384,292.879 L206.101,292.558 L205.826,292.235 L205.557,291.912 L205.294,291.587 L205.039,291.262 L204.79,290.936 L204.548,290.608 L204.313,290.28 L204.085,289.951 L203.864,289.622 L203.649,289.291 L203.441,288.96 L203.241,288.628 L203.047,288.295 L202.86,287.962 L202.68,287.627 L202.507,287.293 L202.341,286.957 L202.181,286.621 L202.029,286.285 L201.884,285.947 L201.746,285.61 L201.615,285.272 L201.491,284.933 L201.374,284.594 L201.264,284.254 L201.161,283.915 L201.065,283.574 L200.976,283.234 L200.894,282.893 L200.82,282.552 L200.752,282.21 L200.692,281.869 L200.638,281.527 L200.592,281.185 L200.553,280.843 L200.521,280.5 L200.496,280.158 L200.478,279.815 L200.468,279.473 L200.464,279.13 L200.468,278.787 L200.478,278.445 L200.496,278.102 L200.521,277.76 L200.553,277.418 L200.592,277.075 L200.638,276.733 L200.692,276.391 L200.752,276.05 L200.82,275.708 L200.894,275.367 L200.976,275.026 L201.065,274.686 L201.161,274.346 L201.264,274.006 L201.374,273.666 L201.491,273.327 L201.615,272.989 L201.746,272.65 L201.884,272.313 L202.029,271.976 L202.181,271.639 L202.341,271.303 L202.507,270.968 L202.68,270.633 L202.86,270.299 L203.047,269.965 L203.241,269.632 L203.441,269.3 L203.649,268.969 L203.864,268.638 L204.085,268.309 L204.313,267.98 L204.548,267.652 L204.79,267.325 L205.039,266.998 L205.294,266.673 L205.557,266.348 L205.826,266.025 L206.101,265.703 L206.384,265.381 L206.673,265.061 L206.968,264.741 L207.271,264.423 L207.579,264.106 L207.895,263.79 L208.217,263.475 L208.545,263.162 L208.88,262.849 L209.222,262.538 L209.57,262.228 L209.924,261.92 L210.285,261.613 L210.652,261.307 L211.026,261.002 L211.406,260.699 L211.792,260.397 L212.184,260.097 L212.583,259.798 L212.987,259.5 L213.398,259.204 L213.815,258.91 L214.239,258.617 L214.668,258.326 L215.103,258.036 L215.544,257.748 L215.992,257.461 L216.445,257.176 L216.904,256.893 L217.369,256.612 L217.84,256.332 L218.316,256.054 L218.799,255.778 L219.287,255.503 L219.78,255.23 L220.28,254.96 L220.785,254.69 L221.295,254.423 L221.811,254.158 L222.333,253.895 L222.86,253.633 L223.393,253.374 L223.93,253.116 L224.474,252.86 L225.022,252.607 L225.576,252.355 L226.135,252.106 L226.699,251.858 L227.268,251.613 L227.842,251.369 L228.422,251.128 L229.006,250.889 L229.595,250.652 L230.189,250.417 L230.788,250.185 L231.392,249.955 L232.001,249.726 L232.614,249.501 L233.232,249.277 L233.854,249.056 L234.482,248.836 L235.113,248.62 L235.749,248.405 L236.39,248.193 L237.035,247.983 L237.684,247.776 L238.338,247.571 L238.996,247.368 L239.658,247.168 L240.324,246.971 L240.994,246.775 L241.668,246.582 L242.347,246.392 L243.029,246.204 L243.715,246.019 L244.405,245.836 L245.098,245.656 L245.796,245.478 L246.497,245.303 L247.202,245.13 L247.91,244.96 L248.621,244.793 L249.337,244.628 L250.055,244.466 L250.777,244.306 L251.502,244.15 L252.231,243.995 L252.962,243.844 L253.697,243.695 L254.435,243.549 L255.176,243.405 L255.919,243.265 L256.666,243.127 L257.415,242.992 L258.168,242.859 L258.923,242.729 L259.68,242.602 L260.441,242.478 L261.203,242.357 L261.969,242.238 L262.736,242.122 L263.507,242.009 L264.279,241.899 L265.054,241.792 L265.831,241.688 L266.61,241.586 L267.391,241.487 L268.174,241.391 L268.959,241.298 L269.746,241.208 L270.535,241.121 L271.325,241.037 L272.118,240.955 L272.912,240.877 L273.707,240.801 L274.504,240.728 L275.303,240.659 L276.103,240.592 L276.905,240.528 L277.707,240.467 L278.511,240.409 L279.316,240.354 L280.123,240.302 L280.93,240.253 L281.738,240.206 L282.547,240.163 L283.357,240.123 L284.168,240.086 L284.98,240.051 L285.792,240.02 L286.605,239.992 L287.419,239.966 L288.233,239.944 L289.047,239.924 L289.862,239.908 L290.677,239.894 L291.492,239.884 L292.308,239.877 L293.123,239.872 L293.939,239.871 L294.755,239.872 L295.57,239.877 L296.386,239.884 L297.201,239.894 L298.016,239.908 L298.831,239.924 L299.646,239.944 L300.46,239.966 L301.273,239.992 L302.086,240.02 L302.898,240.051 L303.71,240.086 L304.521,240.123 L305.331,240.163 L306.14,240.206 L306.948,240.253 L307.756,240.302 L308.562,240.354 L309.367,240.409 L310.171,240.467 L310.973,240.528 L311.775,240.592 L312.575,240.659 L313.374,240.728 L314.171,240.801 L314.966,240.877 L315.76,240.955 L316.553,241.037 L317.343,241.121 L318.132,241.208 L318.919,241.298 L319.704,241.391 L320.487,241.487 L321.268,241.586 L322.048,241.688 L322.824,241.792 L323.599,241.899 L324.372,242.009 L325.142,242.122 L325.909,242.238 L326.675,242.357 L327.437,242.478 L328.198,242.602 L328.955,242.729 L329.71,242.859 L330.463,242.992 L331.212,243.127 L331.959,243.265 L332.702,243.405 L333.443,243.549 L334.181,243.695 L334.916,243.844 L335.647,243.995 L336.376,244.15 L337.101,244.306 L337.823,244.466 L338.541,244.628 L339.257,244.793 L339.968,244.96 L340.677,245.13 L341.381,245.303 L342.082,245.478 L342.78,245.656 L343.473,245.836 L344.163,246.019 L344.849,246.204 L345.531,246.392 L346.21,246.582 L346.884,246.775 L347.554,246.971 L348.22,247.168 L348.882,247.368 L349.54,247.571 L350.194,247.776 L350.843,247.983 L351.488,248.193 L352.129,248.405 L352.765,248.62 L353.396,248.836 L354.024,249.056 L354.646,249.277 L355.264,249.501 L355.877,249.726 L356.486,249.955 L357.09,250.185 L357.689,250.417 L358.283,250.652 L358.872,250.889 L359.457,251.128 L360.036,251.369 L360.61,251.613 L361.179,251.858 L361.743,252.106 L362.302,252.355 L362.856,252.607 L363.404,252.86 L363.948,253.116 L364.485,253.374 L365.018,253.633 L365.545,253.895 L366.067,254.158 L366.583,254.423 L367.093,254.69 L367.598,254.96 L368.098,255.23 L368.591,255.503 L369.08,255.778 L369.562,256.054 L370.038,256.332 L370.509,256.612 L370.974,256.893 L371.433,257.176 L371.886,257.461 L372.334,257.748 L372.775,258.036 L373.21,258.326 L373.64,258.617 L374.063,258.91 L374.48,259.204 L374.891,259.5 L375.296,259.798 L375.694,260.097 L376.086,260.397 L376.473,260.699 L376.852,261.002 L377.226,261.307 L377.593,261.613 L377.954,261.92 L378.308,262.228 L378.656,262.538 L378.998,262.849 L379.333,263.162 L379.661,263.475 L379.983,263.79 L380.299,264.106 L380.608,264.423 L380.91,264.741 L381.205,265.061 L381.494,265.381 L381.777,265.703 L382.052,266.025 L382.321,266.348 L382.584,266.673 L382.839,266.998 L383.088,267.325 L383.33,267.652 L383.565,267.98 L383.793,268.309 L384.014,268.638 L384.229,268.969 L384.437,269.3 L384.637,269.632 L384.831,269.965 L385.018,270.299 L385.198,270.633 L385.371,270.968 L385.537,271.303 L385.697,271.639 L385.849,271.976 L385.994,272.313 L386.132,272.65 L386.263,272.989 L386.387,273.327 L386.504,273.666 L386.614,274.006 L386.717,274.346 L386.813,274.686 L386.902,275.026 L386.984,275.367 L387.058,275.708 L387.126,276.05 L387.186,276.391 L387.24,276.733 L387.286,277.075 L387.325,277.418 L387.357,277.76 L387.382,278.102 L387.4,278.445 L387.41,278.787 L387.414,279.13 Z" stroke="#355c55" stroke-width="1.05" stroke-opacity="0.58" data-verse="1"/><path d="M228.237,307.361 L227.249,307.116 L226.272,306.864 L225.307,306.604 L224.353,306.337 L223.41,306.062 L222.48,305.781 L221.562,305.492 L220.657,305.196 L219.765,304.893 L218.886,304.584 L218.02,304.268 L217.167,303.945 L216.329,303.616 L215.504,303.282 L214.693,302.941 L213.896,302.594 L213.114,302.242 L212.346,301.884 L211.592,301.521 L210.853,301.153 L210.128,300.78 L209.418,300.402 L208.723,300.019 L208.042,299.632 L207.376,299.241 L206.725,298.846 L206.088,298.447 L205.465,298.044 L204.857,297.638 L204.263,297.229 L203.684,296.816 L203.119,296.401 L202.567,295.983 L202.029,295.562 L201.505,295.139 L200.994,294.714 L200.497,294.287 L200.012,293.858 L199.54,293.427 L199.081,292.995 L198.634,292.562 L198.199,292.127 L197.775,291.692 L197.363,291.255 L196.962,290.818 L196.572,290.381 L196.192,289.943 L195.823,289.505 L195.463,289.067 L195.113,288.629 L194.772,288.191 L194.439,287.753 L194.115,287.315 L193.799,286.878 L193.49,286.442 L193.189,286.006 L192.895,285.571 L192.607,285.137 L192.325,284.704 L192.049,284.272 L191.778,283.841 L191.512,283.411 L191.251,282.982 L190.994,282.554 L190.741,282.128 L190.491,281.703 L190.245,281.279 L190.001,280.857 L189.759,280.435 L189.52,280.015 L189.282,279.597 L189.046,279.18 L188.811,278.764 L188.576,278.349 L188.342,277.936 L188.109,277.524 L187.875,277.113 L187.64,276.703 L187.405,276.294 L187.17,275.887 L186.933,275.48 L186.695,275.074 L186.455,274.67 L186.214,274.266 L185.971,273.863 L185.725,273.46 L185.478,273.059 L185.229,272.657 L184.977,272.257 L184.723,271.856 L184.466,271.456 L184.207,271.056 L183.946,270.656 L183.681,270.256 L183.414,269.856 L183.145,269.456 L182.873,269.056 L182.599,268.655 L182.322,268.254 L182.044,267.852 L181.763,267.449 L181.479,267.046 L181.195,266.642 L180.908,266.237 L180.62,265.831 L180.33,265.424 L180.04,265.015 L179.748,264.606 L179.456,264.195 L179.164,263.782 L178.871,263.369 L178.579,262.953 L178.287,262.536 L177.996,262.117 L177.706,261.696 L177.418,261.274 L177.131,260.85 L176.847,260.423 L176.565,259.995 L176.286,259.565 L176.011,259.133 L175.739,258.698 L175.472,258.262 L175.209,257.824 L174.951,257.383 L174.699,256.94 L174.453,256.496 L174.213,256.049 L173.98,255.6 L173.754,255.149 L173.535,254.696 L173.325,254.241 L173.124,253.784 L172.931,253.325 L172.748,252.864 L172.575,252.401 L172.413,251.937 L172.261,251.471 L172.121,251.003 L171.992,250.534 L171.875,250.063 L171.771,249.591 L171.68,249.118 L171.603,248.644 L171.539,248.168 L171.489,247.692 L171.454,247.214 L171.434,246.737 L171.429,246.258 L171.44,245.779 L171.467,245.3 L171.51,244.821 L171.569,244.341 L171.646,243.862 L171.74,243.383 L171.851,242.904 L171.98,242.426 L172.127,241.949 L172.292,241.472 L172.475,240.997 L172.677,240.523 L172.897,240.05 L173.136,239.579 L173.395,239.11 L173.672,238.642 L173.969,238.177 L174.284,237.714 L174.619,237.253 L174.974,236.794 L175.347,236.339 L175.74,235.886 L176.153,235.437 L176.585,234.991 L177.035,234.548 L177.506,234.108 L177.995,233.673 L178.503,233.241 L179.03,232.813 L179.575,232.389 L180.14,231.97 L180.722,231.555 L181.323,231.145 L181.941,230.739 L182.578,230.339 L183.231,229.943 L183.902,229.552 L184.59,229.167 L185.294,228.787 L186.015,228.412 L186.752,228.043 L187.504,227.679 L188.272,227.321 L189.055,226.969 L189.852,226.622 L190.663,226.282 L191.489,225.947 L192.328,225.618 L193.179,225.296 L194.044,224.979 L194.921,224.669 L195.809,224.364 L196.709,224.066 L197.62,223.774 L198.541,223.488 L199.472,223.209 L200.413,222.935 L201.363,222.667 L202.322,222.406 L203.289,222.151 L204.263,221.901 L205.246,221.658 L206.235,221.42 L207.23,221.189 L208.232,220.963 L209.239,220.743 L210.251,220.528 L211.268,220.319 L212.29,220.116 L213.315,219.918 L214.344,219.725 L215.375,219.537 L216.41,219.354 L217.447,219.176 L218.486,219.003 L219.526,218.835 L220.568,218.671 L221.61,218.511 L222.653,218.356 L223.697,218.205 L224.74,218.058 L225.783,217.915 L226.825,217.775 L227.867,217.639 L228.907,217.506 L229.946,217.377 L230.983,217.25 L232.019,217.126 L233.052,217.005 L234.084,216.887 L235.113,216.771 L236.139,216.657 L237.163,216.546 L238.184,216.436 L239.202,216.328 L240.218,216.222 L241.23,216.117 L242.239,216.013 L243.245,215.911 L244.248,215.81 L245.248,215.709 L246.244,215.609 L247.238,215.51 L248.228,215.411 L249.215,215.313 L250.199,215.214 L251.181,215.116 L252.159,215.018 L253.135,214.92 L254.108,214.821 L255.078,214.722 L256.046,214.622 L257.012,214.522 L257.975,214.422 L258.937,214.32 L259.897,214.218 L260.855,214.115 L261.811,214.012 L262.767,213.907 L263.721,213.801 L264.675,213.694 L265.627,213.587 L266.58,213.478 L267.532,213.368 L268.484,213.257 L269.436,213.145 L270.389,213.032 L271.342,212.917 L272.297,212.802 L273.252,212.686 L274.209,212.569 L275.167,212.451 L276.127,212.332 L277.089,212.212 L278.054,212.092 L279.02,211.971 L279.99,211.849 L280.962,211.727 L281.937,211.605 L282.916,211.482 L283.898,211.359 L284.883,211.237 L285.872,211.114 L286.865,210.991 L287.863,210.869 L288.864,210.747 L289.87,210.626 L290.88,210.506 L291.895,210.386 L292.915,210.268 L293.939,210.151 L294.968,210.035 L296.002,209.921 L297.041,209.809 L298.085,209.698 L299.134,209.59 L300.188,209.484 L301.247,209.381 L302.311,209.28 L303.38,209.182 L304.454,209.087 L305.533,208.995 L306.616,208.907 L307.704,208.823 L308.797,208.742 L309.894,208.665 L310.996,208.592 L312.101,208.524 L313.211,208.46 L314.324,208.401 L315.442,208.347 L316.562,208.298 L317.686,208.255 L318.813,208.216 L319.942,208.184 L321.075,208.157 L322.209,208.136 L323.345,208.121 L324.483,208.113 L325.622,208.111 L326.763,208.115 L327.904,208.127 L329.045,208.145 L330.187,208.17 L331.328,208.202 L332.468,208.241 L333.608,208.288 L334.746,208.342 L335.882,208.404 L337.017,208.473 L338.148,208.55 L339.277,208.635 L340.403,208.727 L341.524,208.828 L342.642,208.936 L343.755,209.053 L344.863,209.177 L345.966,209.31 L347.064,209.451 L348.155,209.6 L349.239,209.757 L350.317,209.922 L351.387,210.095 L352.45,210.276 L353.504,210.466 L354.55,210.663 L355.588,210.868 L356.616,211.082 L357.634,211.303 L358.643,211.532 L359.641,211.769 L360.629,212.014 L361.606,212.266 L362.571,212.526 L363.525,212.793 L364.468,213.068 L365.398,213.35 L366.316,213.638 L367.221,213.934 L368.113,214.237 L368.992,214.546 L369.858,214.862 L370.711,215.185 L371.549,215.514 L372.374,215.848 L373.185,216.189 L373.982,216.536 L374.764,216.888 L375.533,217.246 L376.286,217.609 L377.025,217.977 L377.75,218.35 L378.46,218.728 L379.155,219.111 L379.836,219.498 L380.502,219.889 L381.153,220.284 L381.79,220.683 L382.413,221.086 L383.021,221.492 L383.615,221.901 L384.194,222.314 L384.76,222.729 L385.311,223.147 L385.849,223.568 L386.373,223.991 L386.884,224.416 L387.381,224.843 L387.866,225.272 L388.338,225.703 L388.797,226.135 L389.244,226.568 L389.679,227.003 L390.103,227.438 L390.515,227.875 L390.916,228.312 L391.306,228.749 L391.686,229.187 L392.055,229.625 L392.415,230.063 L392.765,230.502 L393.106,230.94 L393.439,231.377 L393.763,231.815 L394.079,232.252 L394.388,232.688 L394.689,233.124 L394.983,233.559 L395.271,233.993 L395.553,234.426 L395.829,234.858 L396.1,235.289 L396.366,235.719 L396.627,236.148 L396.884,236.576 L397.137,237.002 L397.387,237.427 L397.633,237.851 L397.877,238.274 L398.119,238.695 L398.358,239.115 L398.596,239.533 L398.832,239.95 L399.067,240.366 L399.302,240.781 L399.536,241.194 L399.77,241.607 L400.003,242.017 L400.238,242.427 L400.473,242.836 L400.708,243.243 L400.945,243.65 L401.183,244.056 L401.423,244.46 L401.664,244.864 L401.907,245.267 L402.153,245.67 L402.4,246.071 L402.649,246.473 L402.901,246.874 L403.155,247.274 L403.412,247.674 L403.671,248.074 L403.933,248.474 L404.197,248.874 L404.464,249.274 L404.733,249.674 L405.005,250.074 L405.279,250.475 L405.556,250.877 L405.835,251.278 L406.116,251.681 L406.399,252.084 L406.683,252.488 L406.97,252.893 L407.258,253.299 L407.548,253.706 L407.838,254.115 L408.13,254.524 L408.422,254.935 L408.714,255.348 L409.007,255.762 L409.299,256.177 L409.591,256.594 L409.882,257.013 L410.172,257.434 L410.46,257.856 L410.747,258.28 L411.031,258.707 L411.313,259.135 L411.592,259.565 L411.867,259.997 L412.139,260.432 L412.406,260.868 L412.669,261.306 L412.927,261.747 L413.179,262.19 L413.425,262.634 L413.665,263.081 L413.899,263.53 L414.125,263.981 L414.343,264.434 L414.553,264.889 L414.754,265.346 L414.947,265.805 L415.13,266.266 L415.303,266.729 L415.465,267.193 L415.617,267.659 L415.758,268.127 L415.886,268.596 L416.003,269.067 L416.107,269.539 L416.198,270.012 L416.275,270.486 L416.339,270.962 L416.389,271.438 L416.424,271.916 L416.444,272.393 L416.449,272.872 L416.438,273.351 L416.411,273.83 L416.368,274.31 L416.309,274.789 L416.232,275.268 L416.138,275.747 L416.027,276.226 L415.898,276.704 L415.751,277.181 L415.586,277.658 L415.403,278.133 L415.201,278.607 L414.981,279.08 L414.742,279.551 L414.483,280.02 L414.206,280.488 L413.909,280.953 L413.594,281.417 L413.259,281.877 L412.904,282.336 L412.531,282.791 L412.138,283.244 L411.725,283.693 L411.294,284.14 L410.843,284.582 L410.372,285.022 L409.883,285.457 L409.375,285.889 L408.848,286.317 L408.303,286.741 L407.738,287.16 L407.156,287.575 L406.555,287.985 L405.937,288.391 L405.301,288.791 L404.647,289.187 L403.976,289.578 L403.288,289.963 L402.584,290.343 L401.863,290.718 L401.126,291.087 L400.374,291.451 L399.606,291.809 L398.823,292.161 L398.026,292.508 L397.215,292.848 L396.389,293.183 L395.55,293.512 L394.699,293.834 L393.834,294.151 L392.957,294.461 L392.069,294.766 L391.169,295.064 L390.258,295.356 L389.337,295.642 L388.406,295.921 L387.465,296.195 L386.515,296.463 L385.556,296.724 L384.589,296.979 L383.615,297.229 L382.632,297.472 L381.643,297.71 L380.648,297.941 L379.646,298.167 L378.639,298.387 L377.627,298.602 L376.61,298.811 L375.588,299.014 L374.563,299.213 L373.534,299.405 L372.503,299.593 L371.468,299.776 L370.431,299.954 L369.392,300.127 L368.352,300.295 L367.31,300.459 L366.268,300.619 L365.225,300.774 L364.181,300.925 L363.138,301.072 L362.095,301.215 L361.053,301.355 L360.011,301.491 L358.971,301.624 L357.932,301.754 L356.895,301.88 L355.859,302.004 L354.826,302.125 L353.794,302.243 L352.765,302.359 L351.739,302.473 L350.715,302.584 L349.694,302.694 L348.676,302.802 L347.661,302.908 L346.648,303.013 L345.639,303.117 L344.633,303.219 L343.63,303.32 L342.63,303.421 L341.634,303.521 L340.64,303.62 L339.65,303.719 L338.663,303.817 L337.679,303.916 L336.697,304.014 L335.719,304.112 L334.743,304.211 L333.77,304.309 L332.8,304.408 L331.832,304.508 L330.866,304.608 L329.903,304.708 L328.941,304.81 L327.981,304.912 L327.023,305.015 L326.067,305.119 L325.111,305.223 L324.157,305.329 L323.203,305.436 L322.251,305.544 L321.298,305.652 L320.346,305.762 L319.394,305.873 L318.442,305.985 L317.489,306.098 L316.536,306.213 L315.581,306.328 L314.626,306.444 L313.669,306.561 L312.711,306.679 L311.751,306.798 L310.789,306.918 L309.825,307.038 L308.858,307.159 L307.888,307.281 L306.916,307.403 L305.941,307.525 L304.962,307.648 L303.981,307.771 L302.995,307.893 L302.006,308.016 L301.013,308.139 L300.015,308.261 L299.014,308.383 L298.008,308.504 L296.998,308.624 L295.983,308.744 L294.963,308.862 L293.939,308.979 L292.91,309.095 L291.876,309.209 L290.837,309.321 L289.793,309.432 L288.744,309.54 L287.69,309.646 L286.631,309.749 L285.567,309.85 L284.498,309.948 L283.424,310.043 L282.345,310.135 L281.262,310.223 L280.174,310.307 L279.081,310.388 L277.984,310.465 L276.882,310.538 L275.777,310.606 L274.667,310.67 L273.554,310.729 L272.436,310.783 L271.316,310.832 L270.192,310.876 L269.065,310.914 L267.936,310.946 L266.804,310.973 L265.669,310.994 L264.533,311.009 L263.395,311.017 L262.256,311.019 L261.116,311.015 L259.974,311.003 L258.833,310.985 L257.692,310.96 L256.55,310.928 L255.41,310.889 L254.27,310.842 L253.132,310.788 L251.996,310.726 L250.861,310.657 L249.73,310.58 L248.601,310.495 L247.475,310.403 L246.354,310.302 L245.236,310.194 L244.123,310.077 L243.015,309.953 L241.912,309.82 L240.814,309.679 L239.723,309.53 L238.639,309.374 L237.561,309.208 L236.491,309.035 L235.428,308.854 L234.374,308.665 L233.328,308.467 L232.29,308.262 L231.262,308.048 L230.244,307.827 L229.235,307.598 L228.237,307.361 Z" stroke="#355c55" stroke-width="1.05" stroke-opacity="0.58" data-verse="2"/><path d="M160.909,143.225 L162.941,142.754 L165.015,142.314 L167.128,141.906 L169.279,141.531 L171.465,141.187 L173.684,140.875 L175.933,140.593 L178.21,140.343 L180.511,140.121 L182.834,139.928 L185.176,139.763 L187.533,139.624 L189.904,139.509 L192.285,139.418 L194.674,139.348 L197.067,139.298 L199.462,139.266 L201.857,139.25 L204.249,139.247 L206.635,139.257 L209.015,139.276 L211.385,139.303 L213.744,139.336 L216.091,139.372 L218.424,139.409 L220.742,139.446 L223.045,139.479 L225.33,139.508 L227.599,139.53 L229.85,139.543 L232.084,139.546 L234.301,139.537 L236.5,139.515 L238.683,139.478 L240.851,139.425 L243.004,139.355 L245.143,139.267 L247.269,139.16 L249.384,139.034 L251.49,138.888 L253.587,138.723 L255.677,138.537 L257.762,138.332 L259.844,138.108 L261.924,137.864 L264.004,137.603 L266.086,137.324 L268.171,137.029 L270.261,136.719 L272.358,136.395 L274.462,136.059 L276.576,135.713 L278.7,135.357 L280.836,134.995 L282.985,134.628 L285.147,134.258 L287.323,133.887 L289.514,133.517 L291.719,133.151 L293.939,132.791 L296.174,132.44 L298.423,132.098 L300.687,131.769 L302.964,131.456 L305.254,131.159 L307.555,130.881 L309.867,130.625 L312.188,130.392 L314.517,130.184 L316.852,130.003 L319.192,129.851 L321.534,129.728 L323.878,129.637 L326.22,129.578 L328.56,129.553 L330.894,129.562 L333.221,129.606 L335.539,129.685 L337.846,129.801 L340.14,129.952 L342.419,130.139 L344.68,130.362 L346.924,130.621 L349.146,130.914 L351.347,131.24 L353.525,131.6 L355.678,131.992 L357.806,132.414 L359.907,132.866 L361.982,133.346 L364.029,133.851 L366.048,134.381 L368.039,134.933 L370.003,135.506 L371.94,136.097 L373.85,136.705 L375.734,137.327 L377.593,137.961 L379.429,138.605 L381.243,139.257 L383.036,139.914 L384.81,140.575 L386.567,141.237 L388.31,141.898 L390.04,142.556 L391.76,143.21 L393.473,143.857 L395.18,144.496 L396.884,145.126 L398.588,145.744 L400.294,146.349 L402.006,146.941 L403.725,147.517 L405.454,148.078 L407.196,148.623 L408.953,149.15 L410.726,149.66 L412.518,150.153 L414.331,150.627 L416.167,151.084 L418.027,151.523 L419.912,151.945 L421.823,152.351 L423.761,152.741 L425.727,153.116 L427.721,153.478 L429.742,153.826 L431.791,154.163 L433.867,154.49 L435.968,154.808 L438.095,155.119 L440.244,155.424 L442.415,155.725 L444.606,156.024 L446.814,156.323 L449.037,156.623 L451.271,156.927 L453.515,157.235 L455.764,157.55 L458.016,157.873 L460.267,158.207 L462.512,158.553 L464.749,158.912 L466.974,159.287 L469.182,159.677 L471.37,160.086 L473.533,160.514 L475.667,160.962 L477.769,161.432 L479.835,161.924 L481.861,162.438 L483.843,162.977 L485.778,163.54 L487.663,164.127 L489.494,164.739 L491.268,165.376 L492.983,166.038 L494.637,166.725 L496.228,167.436 L497.754,168.171 L499.213,168.93 L500.604,169.711 L501.927,170.515 L503.181,171.339 L504.367,172.184 L505.484,173.047 L506.534,173.929 L507.518,174.827 L508.436,175.74 L509.292,176.668 L510.086,177.607 L510.822,178.558 L511.502,179.519 L512.13,180.488 L512.708,181.464 L513.241,182.445 L513.733,183.43 L514.187,184.418 L514.608,185.407 L514.999,186.396 L515.367,187.383 L515.715,188.368 L516.049,189.35 L516.372,190.327 L516.689,191.298 L517.006,192.263 L517.328,193.221 L517.657,194.172 L518,195.114 L518.359,196.047 L518.74,196.972 L519.146,197.887 L519.58,198.793 L520.046,199.69 L520.547,200.577 L521.085,201.455 L521.663,202.325 L522.283,203.186 L522.946,204.039 L523.653,204.884 L524.405,205.723 L525.203,206.555 L526.046,207.382 L526.934,208.204 L527.865,209.022 L528.84,209.837 L529.855,210.65 L530.909,211.461 L531.999,212.272 L533.122,213.083 L534.275,213.895 L535.455,214.709 L536.657,215.526 L537.877,216.347 L539.111,217.172 L540.354,218.002 L541.602,218.837 L542.849,219.679 L544.09,220.528 L545.32,221.383 L546.533,222.247 L547.724,223.118 L548.888,223.997 L550.019,224.884 L551.112,225.78 L552.163,226.684 L553.165,227.595 L554.114,228.515 L555.006,229.442 L555.836,230.377 L556.6,231.318 L557.294,232.265 L557.915,233.219 L558.46,234.178 L558.925,235.141 L559.31,236.108 L559.61,237.078 L559.827,238.051 L559.957,239.025 L560,240 L559.957,240.975 L559.827,241.949 L559.61,242.922 L559.31,243.892 L558.925,244.859 L558.46,245.822 L557.915,246.781 L557.294,247.735 L556.6,248.682 L555.836,249.623 L555.006,250.558 L554.114,251.485 L553.165,252.405 L552.163,253.316 L551.112,254.22 L550.019,255.116 L548.888,256.003 L547.724,256.882 L546.533,257.753 L545.32,258.617 L544.09,259.472 L542.849,260.321 L541.602,261.163 L540.354,261.998 L539.111,262.828 L537.877,263.653 L536.657,264.474 L535.455,265.291 L534.275,266.105 L533.122,266.917 L531.999,267.728 L530.909,268.539 L529.855,269.35 L528.84,270.163 L527.865,270.978 L526.934,271.796 L526.046,272.618 L525.203,273.445 L524.405,274.277 L523.653,275.116 L522.946,275.961 L522.283,276.814 L521.663,277.675 L521.085,278.545 L520.547,279.423 L520.046,280.31 L519.58,281.207 L519.146,282.113 L518.74,283.028 L518.359,283.953 L518,284.886 L517.657,285.828 L517.328,286.779 L517.006,287.737 L516.689,288.702 L516.372,289.673 L516.049,290.65 L515.715,291.632 L515.367,292.617 L514.999,293.604 L514.608,294.593 L514.187,295.582 L513.733,296.57 L513.241,297.555 L512.708,298.536 L512.13,299.512 L511.502,300.481 L510.822,301.442 L510.086,302.393 L509.292,303.332 L508.436,304.26 L507.518,305.173 L506.534,306.071 L505.484,306.953 L504.367,307.816 L503.181,308.661 L501.927,309.485 L500.604,310.289 L499.213,311.07 L497.754,311.829 L496.228,312.564 L494.637,313.275 L492.983,313.962 L491.268,314.624 L489.494,315.261 L487.663,315.873 L485.778,316.46 L483.843,317.023 L481.861,317.562 L479.835,318.076 L477.769,318.568 L475.667,319.038 L473.533,319.486 L471.37,319.914 L469.182,320.323 L466.974,320.713 L464.749,321.088 L462.512,321.447 L460.267,321.793 L458.016,322.127 L455.764,322.45 L453.515,322.765 L451.271,323.073 L449.037,323.377 L446.814,323.677 L444.606,323.976 L442.415,324.275 L440.244,324.576 L438.095,324.881 L435.968,325.192 L433.867,325.51 L431.791,325.837 L429.742,326.174 L427.721,326.522 L425.727,326.884 L423.761,327.259 L421.823,327.649 L419.912,328.055 L418.027,328.477 L416.167,328.916 L414.331,329.373 L412.518,329.847 L410.726,330.34 L408.953,330.85 L407.196,331.377 L405.454,331.922 L403.725,332.483 L402.006,333.059 L400.294,333.651 L398.588,334.256 L396.884,334.874 L395.18,335.504 L393.473,336.143 L391.76,336.79 L390.04,337.444 L388.31,338.102 L386.567,338.763 L384.81,339.425 L383.036,340.086 L381.243,340.743 L379.429,341.395 L377.593,342.039 L375.734,342.673 L373.85,343.295 L371.94,343.903 L370.003,344.494 L368.039,345.067 L366.048,345.619 L364.029,346.149 L361.982,346.654 L359.907,347.134 L357.806,347.586 L355.678,348.008 L353.525,348.4 L351.347,348.76 L349.146,349.086 L346.924,349.379 L344.68,349.638 L342.419,349.861 L340.14,350.048 L337.846,350.199 L335.539,350.315 L333.221,350.394 L330.894,350.438 L328.56,350.447 L326.22,350.422 L323.878,350.363 L321.534,350.272 L319.192,350.149 L316.852,349.997 L314.517,349.816 L312.188,349.608 L309.867,349.375 L307.555,349.119 L305.254,348.841 L302.964,348.544 L300.687,348.231 L298.423,347.902 L296.174,347.56 L293.939,347.209 L291.719,346.849 L289.514,346.483 L287.323,346.113 L285.147,345.742 L282.985,345.372 L280.836,345.005 L278.7,344.643 L276.576,344.287 L274.462,343.941 L272.358,343.605 L270.261,343.281 L268.171,342.971 L266.086,342.676 L264.004,342.397 L261.924,342.136 L259.844,341.892 L257.762,341.668 L255.677,341.463 L253.587,341.277 L251.49,341.112 L249.384,340.966 L247.269,340.84 L245.143,340.733 L243.004,340.645 L240.851,340.575 L238.683,340.522 L236.5,340.485 L234.301,340.463 L232.084,340.454 L229.85,340.457 L227.599,340.47 L225.33,340.492 L223.045,340.521 L220.742,340.554 L218.424,340.591 L216.091,340.628 L213.744,340.664 L211.385,340.697 L209.015,340.724 L206.635,340.743 L204.249,340.753 L201.857,340.75 L199.462,340.734 L197.067,340.702 L194.674,340.652 L192.285,340.582 L189.904,340.491 L187.533,340.376 L185.176,340.237 L182.834,340.072 L180.511,339.879 L178.21,339.657 L175.933,339.407 L173.684,339.125 L171.465,338.813 L169.279,338.469 L167.128,338.094 L165.015,337.686 L162.941,337.246 L160.909,336.775 L158.92,336.271 L156.976,335.737 L155.079,335.172 L153.228,334.577 L151.426,333.954 L149.673,333.303 L147.969,332.626 L146.313,331.923 L144.706,331.197 L143.147,330.448 L141.636,329.679 L140.17,328.891 L138.748,328.086 L137.369,327.266 L136.031,326.432 L134.731,325.586 L133.467,324.731 L132.236,323.868 L131.035,322.999 L129.862,322.127 L128.712,321.251 L127.583,320.376 L126.471,319.501 L125.371,318.63 L124.282,317.762 L123.198,316.901 L122.116,316.047 L121.032,315.201 L119.943,314.365 L118.845,313.539 L117.734,312.725 L116.608,311.924 L115.462,311.135 L114.294,310.359 L113.101,309.597 L111.88,308.849 L110.629,308.115 L109.345,307.395 L108.028,306.689 L106.675,305.996 L105.285,305.316 L103.857,304.649 L102.392,303.993 L100.888,303.348 L99.346,302.713 L97.767,302.087 L96.152,301.469 L94.501,300.858 L92.816,300.253 L91.1,299.652 L89.355,299.055 L87.584,298.459 L85.789,297.864 L83.974,297.268 L82.143,296.67 L80.298,296.069 L78.445,295.463 L76.588,294.851 L74.731,294.232 L72.879,293.604 L71.036,292.967 L69.207,292.32 L67.397,291.661 L65.612,290.99 L63.855,290.305 L62.132,289.607 L60.448,288.894 L58.807,288.166 L57.214,287.423 L55.673,286.664 L54.189,285.889 L52.765,285.099 L51.405,284.292 L50.112,283.469 L48.89,282.631 L47.742,281.777 L46.669,280.909 L45.674,280.026 L44.758,279.129 L43.924,278.219 L43.17,277.297 L42.499,276.363 L41.91,275.418 L41.403,274.463 L40.976,273.499 L40.63,272.527 L40.361,271.548 L40.168,270.562 L40.049,269.572 L40,268.578 L40.019,267.581 L40.102,266.581 L40.245,265.581 L40.444,264.58 L40.695,263.58 L40.993,262.581 L41.334,261.585 L41.711,260.592 L42.121,259.602 L42.558,258.617 L43.017,257.636 L43.492,256.66 L43.978,255.69 L44.47,254.725 L44.963,253.767 L45.451,252.814 L45.929,251.868 L46.393,250.928 L46.839,249.993 L47.261,249.064 L47.656,248.141 L48.02,247.222 L48.35,246.309 L48.642,245.399 L48.894,244.494 L49.103,243.591 L49.268,242.691 L49.387,241.793 L49.459,240.896 L49.483,240 L49.459,239.104 L49.387,238.207 L49.268,237.309 L49.103,236.409 L48.894,235.506 L48.642,234.601 L48.35,233.691 L48.02,232.778 L47.656,231.859 L47.261,230.936 L46.839,230.007 L46.393,229.072 L45.929,228.132 L45.451,227.186 L44.963,226.233 L44.47,225.275 L43.978,224.31 L43.492,223.34 L43.017,222.364 L42.558,221.383 L42.121,220.398 L41.711,219.408 L41.334,218.415 L40.993,217.419 L40.695,216.42 L40.444,215.42 L40.245,214.419 L40.102,213.419 L40.019,212.419 L40,211.422 L40.049,210.428 L40.168,209.438 L40.361,208.452 L40.63,207.473 L40.976,206.501 L41.403,205.537 L41.91,204.582 L42.499,203.637 L43.17,202.703 L43.924,201.781 L44.758,200.871 L45.674,199.974 L46.669,199.091 L47.742,198.223 L48.89,197.369 L50.112,196.531 L51.405,195.708 L52.765,194.901 L54.189,194.111 L55.673,193.336 L57.214,192.577 L58.807,191.834 L60.448,191.106 L62.132,190.393 L63.855,189.695 L65.612,189.01 L67.397,188.339 L69.207,187.68 L71.036,187.033 L72.879,186.396 L74.731,185.768 L76.588,185.149 L78.445,184.537 L80.298,183.931 L82.143,183.33 L83.974,182.732 L85.789,182.136 L87.584,181.541 L89.355,180.945 L91.1,180.348 L92.816,179.747 L94.501,179.142 L96.152,178.531 L97.767,177.913 L99.346,177.287 L100.888,176.652 L102.392,176.007 L103.857,175.351 L105.285,174.684 L106.675,174.004 L108.028,173.311 L109.345,172.605 L110.629,171.885 L111.88,171.151 L113.101,170.403 L114.294,169.641 L115.462,168.865 L116.608,168.076 L117.734,167.275 L118.845,166.461 L119.943,165.635 L121.032,164.799 L122.116,163.953 L123.198,163.099 L124.282,162.238 L125.371,161.37 L126.471,160.499 L127.583,159.624 L128.712,158.749 L129.862,157.873 L131.035,157.001 L132.236,156.132 L133.467,155.269 L134.731,154.414 L136.031,153.568 L137.369,152.734 L138.748,151.914 L140.17,151.109 L141.636,150.321 L143.147,149.552 L144.706,148.803 L146.313,148.077 L147.969,147.374 L149.673,146.697 L151.426,146.046 L153.228,145.423 L155.079,144.828 L156.976,144.263 L158.92,143.729 L160.909,143.225 Z" stroke="#355c55" stroke-width="1.05" stroke-opacity="0.58" data-verse="3"/></g></svg>