<svg xmlns="http://www.w3.org/2000/svg" width="1200" height="960" viewBox="0 0 600 480" role="img" aria-label="Hud — Word Current"><title>Hud — Word Current</title><desc>Word Current generated from all 1917 written words in surah 11.</desc><metadata>{&quot;surah&quot;:11,&quot;name&quot;:&quot;Hud&quot;,&quot;method&quot;:&quot;Word Current&quot;,&quot;words&quot;:1917,&quot;letters&quot;:7709,&quot;selectedVerse&quot;:null,&quot;mapping&quot;:&quot;s=10*length; delta=(3*pi/4)*tanh((length-globalMean)/globalSD); exact circular arcs in word order from (0,0), heading 0; zero SD gives straight lines&quot;,&quot;source&quot;:&quot;https://api.quran.com/api/v4/quran/verses/uthmani&quot;,&quot;counting&quot;:&quot;Unicode whitespace words; Unicode L letters except U+0640/U+06E5/U+06E6; no normalization&quot;}</metadata><rect width="600" height="480" fill="#f8f5ec"/><g fill="none" stroke-linecap="round" stroke-linejoin="round"><path d="M291.238,340.057 A2.858,2.858 0 0 1 294.074,342.555 A2.858,2.858 0 0 1 291.953,345.683 A4.916,4.916 0 0 0 288.283,350.844 A4.916,4.916 0 0 0 292.744,355.339 A1.315,1.315 0 0 1 293.704,357.404 A156.339,156.339 0 0 1 290.467,361.856 A1.315,1.315 0 0 1 288.206,361.58 A2.858,2.858 0 0 1 289.392,357.992 A156.339,156.339 0 0 1 294.191,355.296 A156.339,156.339 0 0 1 299.082,352.771" stroke="#355c55" stroke-width="1.6" stroke-opacity="0.78" data-verse="1"/><path d="M299.082,352.771 A2.858,2.858 0 0 1 302.731,353.754 A3.975,3.975 0 0 0 309.572,353.39 A2.858,2.858 0 0 1 313.096,352.025 A156.339,156.339 0 0 1 318.228,354.017 A156.339,156.339 0 0 1 323.286,356.188 A2.858,2.858 0 0 1 324.846,359.629 A2.858,2.858 0 0 1 321.628,361.611 A156.339,156.339 0 0 1 316.221,360.584 A4.916,4.916 0 0 0 310.646,363.589" stroke="#355c55" stroke-width="1.6" stroke-opacity="0.78" data-verse="2"/><path d="M310.646,363.589 A2.858,2.858 0 0 1 307.281,365.307 A4.709,4.709 0 0 0 302.022,372.198 A156.339,156.339 0 0 1 304.659,377.03 A1.315,1.315 0 0 1 303.442,378.954 A4.916,4.916 0 0 0 298.44,382.838 A156.339,156.339 0 0 1 297.194,388.199 A3.975,3.975 0 0 0 302.073,393.009 A156.339,156.339 0 0 1 307.416,391.686 A156.339,156.339 0 0 1 312.802,390.552 A2.858,2.858 0 0 1 316.058,392.47 A2.858,2.858 0 0 1 314.566,395.942 A156.339,156.339 0 0 1 309.552,398.213 A156.339,156.339 0 0 1 304.461,400.305 A1.315,1.315 0 0 1 302.681,398.884 A1.315,1.315 0 0 1 304.8,398.049 A2.858,2.858 0 0 1 305.469,401.769 A156.339,156.339 0 0 1 302.536,406.427 A2.858,2.858 0 0 1 298.893,407.432 A4.916,4.916 0 0 0 292.752,408.979 A156.339,156.339 0 0 1 289.457,413.388 A156.339,156.339 0 0 1 286.008,417.678 A4.916,4.916 0 0 0 286.04,424.011 A156.339,156.339 0 0 1 289.533,428.266 A2.858,2.858 0 0 1 289.334,432.039 A156.339,156.339 0 0 1 285.416,435.905" stroke="#355c55" stroke-width="1.6" stroke-opacity="0.78" data-verse="3"/><path d="M285.416,435.905 A2.858,2.858 0 0 1 281.639,436.051 A156.339,156.339 0 0 1 277.433,432.501 A3.975,3.975 0 0 0 270.93,434.655 A2.858,2.858 0 0 1 267.89,436.901 A2.858,2.858 0 0 1 265.279,434.169 A1.315,1.315 0 0 1 267.202,432.949 A2.858,2.858 0 0 1 268.561,436.476 A156.339,156.339 0 0 1 266.559,441.603" stroke="#355c55" stroke-width="1.6" stroke-opacity="0.78" data-verse="4"/><path d="M266.559,441.603 A2.858,2.858 0 0 1 263.171,443.277 A156.339,156.339 0 0 1 257.882,441.751 A4.916,4.916 0 0 0 252.053,444.225 A3.975,3.975 0 0 0 255.743,449.997 A4.709,4.709 0 0 0 258.838,441.901 A2.858,2.858 0 0 1 258.53,438.135 A2.858,2.858 0 0 1 262.227,437.354 A2.858,2.858 0 0 1 263.468,440.923 A4.218,4.218 0 0 0 268.722,446.514 A3.975,3.975 0 0 0 270.128,439.808 A156.339,156.339 0 0 1 266.125,436.03 A1.315,1.315 0 0 1 266.687,433.824 A4.916,4.916 0 0 0 270.242,428.582 A2.858,2.858 0 0 1 272.432,425.503 A3.975,3.975 0 0 0 274.469,418.962 A2.858,2.858 0 0 1 274.415,415.183 A156.339,156.339 0 0 1 278.066,411.064 A156.339,156.339 0 0 1 281.861,407.077 A3.975,3.975 0 0 0 280.097,400.457" stroke="#355c55" stroke-width="1.6" stroke-opacity="0.78" data-verse="5"/><path d="M280.097,400.457 A2.858,2.858 0 0 1 278.036,397.289 A1.315,1.315 0 0 1 280.152,396.446 A156.339,156.339 0 0 1 284.416,399.927 A1.315,1.315 0 0 1 284.014,402.168 A4.916,4.916 0 0 0 280.845,407.652 A2.858,2.858 0 0 1 278.882,410.88 A2.858,2.858 0 0 1 275.431,409.34 A156.339,156.339 0 0 1 273.231,404.294 A4.916,4.916 0 0 0 267.607,401.384 A4.916,4.916 0 0 0 263.78,406.43 A4.218,4.218 0 0 0 270.911,409.26 A5.267,5.267 0 0 0 267.402,400.193 A1.315,1.315 0 0 1 266.312,398.194 A1.315,1.315 0 0 1 268.589,398.245 A2.858,2.858 0 0 1 267.764,401.933 A156.339,156.339 0 0 1 263.255,405.09" stroke="#355c55" stroke-width="1.6" stroke-opacity="0.78" data-verse="6"/><path d="M263.255,405.09 A2.858,2.858 0 0 1 259.507,404.605 A156.339,156.339 0 0 1 255.952,400.402 A2.858,2.858 0 0 1 256.094,396.626 A3.975,3.975 0 0 0 254.209,390.04 A3.975,3.975 0 0 0 249.363,394.882 A1.315,1.315 0 0 1 247.74,396.479 A2.858,2.858 0 0 1 245.669,393.318 A156.339,156.339 0 0 1 246.546,387.884 A156.339,156.339 0 0 1 247.613,382.484 A156.339,156.339 0 0 1 248.87,377.125 A2.858,2.858 0 0 1 251.988,374.989 A4.916,4.916 0 0 0 257.291,371.528 A4.218,4.218 0 0 0 251.531,366.46 A156.339,156.339 0 0 1 246.467,368.618 A156.339,156.339 0 0 1 241.331,370.596 A156.339,156.339 0 0 1 236.127,372.392 A156.339,156.339 0 0 1 230.864,374.004 A2.858,2.858 0 0 1 227.45,372.386 A156.339,156.339 0 0 1 225.365,367.291 A4.218,4.218 0 0 0 217.706,366.847 A1.315,1.315 0 0 1 215.43,366.933 A2.858,2.858 0 0 1 216.031,363.202 A4.916,4.916 0 0 0 217.178,356.974 A3.975,3.975 0 0 0 210.328,356.874 A4.916,4.916 0 0 0 211.293,363.133 A4.916,4.916 0 0 0 217.625,363.249 A1.315,1.315 0 0 1 219.752,364.061 A2.858,2.858 0 0 1 217.737,367.258 A2.858,2.858 0 0 1 214.312,365.663 A2.858,2.858 0 0 1 215.462,362.064 A156.339,156.339 0 0 1 220.234,359.32" stroke="#355c55" stroke-width="1.6" stroke-opacity="0.78" data-verse="7"/><path d="M220.234,359.32 A156.339,156.339 0 0 1 225.1,356.747 A4.916,4.916 0 0 0 227.578,350.919 A156.339,156.339 0 0 1 226.057,345.629 A3.975,3.975 0 0 0 219.454,343.803 A2.858,2.858 0 0 1 215.679,343.979 A2.858,2.858 0 0 1 215.028,340.256 A3.975,3.975 0 0 0 211.808,334.209 A3.975,3.975 0 0 0 208.081,339.958 A1.315,1.315 0 0 1 206.828,341.859 A4.916,4.916 0 0 0 201.754,345.649 A2.858,2.858 0 0 1 198.677,347.842 A2.858,2.858 0 0 1 196.113,345.066 A3.975,3.975 0 0 0 190.13,341.729 A2.858,2.858 0 0 1 186.421,341.006 A3.975,3.975 0 0 0 179.623,341.853 A156.339,156.339 0 0 1 177.348,346.866 A156.339,156.339 0 0 1 174.899,351.795 A2.858,2.858 0 0 1 171.375,353.162 A1.315,1.315 0 0 1 170.985,350.918 A4.916,4.916 0 0 0 172.082,344.681 A1.315,1.315 0 0 1 173.214,342.705 A4.709,4.709 0 0 0 176.57,334.714" stroke="#355c55" stroke-width="1.6" stroke-opacity="0.78" data-verse="8"/><path d="M176.57,334.714 A156.339,156.339 0 0 1 172.802,330.701 A4.916,4.916 0 0 0 166.527,329.85 A3.975,3.975 0 0 0 166.751,336.698 A2.858,2.858 0 0 1 168.044,340.248 A156.339,156.339 0 0 1 165.948,345.338 A1.315,1.315 0 0 1 163.686,345.603 A3.975,3.975 0 0 0 156.876,346.346 A2.858,2.858 0 0 1 153.434,347.905 A2.858,2.858 0 0 1 151.453,344.686 A156.339,156.339 0 0 1 152.483,339.279 A156.339,156.339 0 0 1 153.703,333.912" stroke="#355c55" stroke-width="1.6" stroke-opacity="0.78" data-verse="9"/><path d="M153.703,333.912 A156.339,156.339 0 0 1 155.11,328.59 A4.916,4.916 0 0 0 152.507,322.817 A4.916,4.916 0 0 0 146.375,324.398 A2.858,2.858 0 0 1 142.696,325.259 A156.339,156.339 0 0 1 137.891,322.573 A156.339,156.339 0 0 1 133.184,319.719 A3.975,3.975 0 0 0 127.095,322.858 A2.858,2.858 0 0 1 124.441,325.548 A3.975,3.975 0 0 0 121.386,331.68 A2.858,2.858 0 0 1 120.837,335.419 A2.858,2.858 0 0 1 117.058,335.346 A156.339,156.339 0 0 1 113.065,331.557 A156.339,156.339 0 0 1 109.208,327.63" stroke="#355c55" stroke-width="1.6" stroke-opacity="0.78" data-verse="10"/><path d="M109.208,327.63 A2.858,2.858 0 0 1 109.07,323.853 A4.916,4.916 0 0 0 108.979,317.521 A4.916,4.916 0 0 0 102.724,316.531 A3.975,3.975 0 0 0 102.797,323.382 A3.975,3.975 0 0 0 108.753,319.997 A4.916,4.916 0 0 0 104.749,315.09 A2.858,2.858 0 0 1 102.427,312.109 A4.916,4.916 0 0 0 98.647,307.027 A156.339,156.339 0 0 1 93.312,305.671 A156.339,156.339 0 0 1 88.029,304.127" stroke="#355c55" stroke-width="1.6" stroke-opacity="0.78" data-verse="11"/><path d="M88.029,304.127 A4.916,4.916 0 0 0 82.191,306.581 A156.339,156.339 0 0 1 79.597,311.436 A2.858,2.858 0 0 1 76.035,312.697 A1.315,1.315 0 0 1 75.711,310.443 A156.339,156.339 0 0 1 80.093,307.113 A156.339,156.339 0 0 1 84.591,303.939 A4.916,4.916 0 0 0 86.304,297.842 A1.315,1.315 0 0 1 87.628,295.99 A156.339,156.339 0 0 1 93.097,296.612 A1.315,1.315 0 0 1 93.971,298.715 A3.975,3.975 0 0 0 96.55,305.062 A156.339,156.339 0 0 1 101.98,305.96 A156.339,156.339 0 0 1 107.376,307.049 A156.339,156.339 0 0 1 112.73,308.327 A2.858,2.858 0 0 1 114.853,311.453 A1.315,1.315 0 0 1 112.755,312.338 A2.858,2.858 0 0 1 111.999,308.636 A2.858,2.858 0 0 1 115.576,307.418 A2.858,2.858 0 0 1 117.235,310.814 A156.339,156.339 0 0 1 115.686,316.096 A2.858,2.858 0 0 1 112.456,318.057 A156.339,156.339 0 0 1 107.055,316.996 A4.916,4.916 0 0 0 101.462,319.966 A2.858,2.858 0 0 1 98.086,321.663 A1.315,1.315 0 0 1 97.482,319.468 A2.858,2.858 0 0 1 101.252,319.201 A156.339,156.339 0 0 1 105.569,322.615" stroke="#355c55" stroke-width="1.6" stroke-opacity="0.78" data-verse="12"/><path d="M105.569,322.615 A1.315,1.315 0 0 1 105.202,324.862 A3.975,3.975 0 0 0 104.045,331.615 A3.975,3.975 0 0 0 110.511,329.352 A1.315,1.315 0 0 1 112.666,328.617 A4.916,4.916 0 0 0 118.998,328.727 A156.339,156.339 0 0 1 123.331,325.332 A2.858,2.858 0 0 1 127.099,325.615 A156.339,156.339 0 0 1 130.875,329.621 A3.975,3.975 0 0 0 137.581,328.219 A3.975,3.975 0 0 0 133.103,323.034 A1.315,1.315 0 0 1 131.628,321.299 A4.218,4.218 0 0 0 126.122,315.957 A1.315,1.315 0 0 1 124.344,314.535 A2.858,2.858 0 0 1 127.237,312.104 A156.339,156.339 0 0 1 132.737,312.329 A1.315,1.315 0 0 1 133.76,314.364 A156.339,156.339 0 0 1 130.662,318.914 A4.916,4.916 0 0 0 131.196,325.224" stroke="#355c55" stroke-width="1.6" stroke-opacity="0.78" data-verse="13"/><path d="M131.196,325.224 A156.339,156.339 0 0 1 135.014,329.189 A4.709,4.709 0 0 0 143.165,326.239 A2.858,2.858 0 0 1 145.813,323.544 A4.218,4.218 0 0 0 148.493,316.355 A156.339,156.339 0 0 1 144.671,312.394 A156.339,156.339 0 0 1 140.99,308.301 A156.339,156.339 0 0 1 137.456,304.081 A156.339,156.339 0 0 1 134.073,299.739 A2.858,2.858 0 0 1 134.367,295.971 A1.315,1.315 0 0 1 136.558,296.59 A2.858,2.858 0 0 1 134.837,299.954 A2.858,2.858 0 0 1 131.283,298.671 A1.315,1.315 0 0 1 132.461,296.723 A2.858,2.858 0 0 1 135.248,299.275 A156.339,156.339 0 0 1 135.74,304.758 A3.975,3.975 0 0 0 141.877,307.802" stroke="#355c55" stroke-width="1.6" stroke-opacity="0.78" data-verse="14"/><path d="M141.877,307.802 A1.315,1.315 0 0 1 143.909,308.829 A2.858,2.858 0 0 1 141.576,311.801 A156.339,156.339 0 0 1 136.146,312.708 A3.975,3.975 0 0 0 133.577,319.058 A3.975,3.975 0 0 0 140.377,318.226 A4.218,4.218 0 0 0 135.252,312.517 A2.858,2.858 0 0 1 131.801,310.978 A4.916,4.916 0 0 0 126.076,308.27 A3.975,3.975 0 0 0 124.22,314.864 A156.339,156.339 0 0 1 127.959,318.905 A2.858,2.858 0 0 1 127.984,322.684 A156.339,156.339 0 0 1 124.301,326.775 A1.315,1.315 0 0 1 122.082,326.264 A3.975,3.975 0 0 0 115.417,324.679" stroke="#355c55" stroke-width="1.6" stroke-opacity="0.78" data-verse="15"/><path d="M115.417,324.679 A4.916,4.916 0 0 0 114.999,330.998 A4.916,4.916 0 0 0 121.155,332.487 A2.858,2.858 0 0 1 124.807,333.457 A2.858,2.858 0 0 1 124.305,337.202 A1.315,1.315 0 0 1 122.151,336.463 A3.975,3.975 0 0 0 115.689,334.188 A2.858,2.858 0 0 1 111.911,334.105 A4.916,4.916 0 0 0 105.584,333.823 A156.339,156.339 0 0 1 101.162,337.101 A1.315,1.315 0 0 1 99.088,336.16 A4.916,4.916 0 0 0 94.552,331.74 A156.339,156.339 0 0 1 89.07,331.244 A156.339,156.339 0 0 1 83.609,330.555 A1.315,1.315 0 0 1 82.761,328.442 A4.916,4.916 0 0 0 82.539,322.113 A3.975,3.975 0 0 0 75.828,323.492" stroke="#355c55" stroke-width="1.6" stroke-opacity="0.78" data-verse="16"/><path d="M75.828,323.492 A156.339,156.339 0 0 1 73.955,328.668 A2.858,2.858 0 0 1 70.61,330.425 A2.858,2.858 0 0 1 68.444,327.329 A156.339,156.339 0 0 1 69.155,321.87 A1.315,1.315 0 0 1 71.272,321.031 A2.858,2.858 0 0 1 71.948,324.749 A3.975,3.975 0 0 0 75.211,330.773 A156.339,156.339 0 0 1 80.707,331.067 A2.858,2.858 0 0 1 83.358,333.761 A2.858,2.858 0 0 1 81.021,336.73 A156.339,156.339 0 0 1 75.59,337.63 A2.858,2.858 0 0 1 72.42,335.573 A156.339,156.339 0 0 1 71.029,330.247 A4.916,4.916 0 0 0 65.924,326.499 A4.916,4.916 0 0 0 61.362,330.891 A4.916,4.916 0 0 0 64.912,336.136 A3.975,3.975 0 0 0 69.865,331.403 A1.315,1.315 0 0 1 71.524,329.842 A2.858,2.858 0 0 1 73.523,333.049 A156.339,156.339 0 0 1 72.525,338.462 A1.315,1.315 0 0 1 70.367,339.189 A1.315,1.315 0 0 1 70.812,336.956 A4.218,4.218 0 0 0 71.586,329.323 A3.975,3.975 0 0 0 65.602,332.66 A4.916,4.916 0 0 0 69.566,337.599 A2.858,2.858 0 0 1 71.864,340.598 A1.315,1.315 0 0 1 69.82,341.602 A1.315,1.315 0 0 1 69.969,339.33 A156.339,156.339 0 0 1 74.945,336.976 A2.858,2.858 0 0 1 78.557,338.086 A2.858,2.858 0 0 1 77.912,341.809 A156.339,156.339 0 0 1 73.562,345.182 A1.315,1.315 0 0 1 71.468,344.286 A2.858,2.858 0 0 1 73.608,341.171 A156.339,156.339 0 0 1 78.968,339.921 A156.339,156.339 0 0 1 84.37,338.86 A4.916,4.916 0 0 0 88.423,333.994 A1.315,1.315 0 0 1 90.388,332.844 A3.975,3.975 0 0 0 96.327,329.427" stroke="#355c55" stroke-width="1.6" stroke-opacity="0.78" data-verse="17"/><path d="M96.327,329.427 A2.858,2.858 0 0 1 98.853,326.617 A156.339,156.339 0 0 1 104.331,326.075 A2.858,2.858 0 0 1 107.359,328.335 A4.916,4.916 0 0 0 112.349,332.235 A2.858,2.858 0 0 1 115.273,334.628 A156.339,156.339 0 0 1 116.07,340.075 A156.339,156.339 0 0 1 116.674,345.546 A4.916,4.916 0 0 0 121.182,349.994 A3.975,3.975 0 0 0 125.113,344.383 A2.858,2.858 0 0 1 126.211,340.767 A156.339,156.339 0 0 1 130.943,337.955 A4.916,4.916 0 0 0 133.128,332.011 A3.975,3.975 0 0 0 126.394,330.752 A4.916,4.916 0 0 0 126.284,337.084 A4.916,4.916 0 0 0 132.505,338.271 A4.916,4.916 0 0 0 134.735,332.344 A2.858,2.858 0 0 1 136.144,328.837 A156.339,156.339 0 0 1 141.103,326.449 A2.858,2.858 0 0 1 144.724,327.533 A156.339,156.339 0 0 1 147.554,332.254 A156.339,156.339 0 0 1 150.216,337.072 A2.858,2.858 0 0 1 149.337,340.747 A4.218,4.218 0 0 0 150.747,348.288" stroke="#355c55" stroke-width="1.6" stroke-opacity="0.78" data-verse="18"/><path d="M150.747,348.288 A4.916,4.916 0 0 0 156.433,345.5 A4.916,4.916 0 0 0 154.655,339.422 A1.315,1.315 0 0 1 154.796,337.149 A156.339,156.339 0 0 1 159.763,334.778 A156.339,156.339 0 0 1 164.811,332.584 A4.709,4.709 0 0 0 164.892,323.917 A156.339,156.339 0 0 1 159.885,321.629 A2.858,2.858 0 0 1 158.405,318.152 A4.218,4.218 0 0 0 152.784,312.931 A1.315,1.315 0 0 1 150.975,311.548 A4.916,4.916 0 0 0 147.549,306.222" stroke="#355c55" stroke-width="1.6" stroke-opacity="0.78" data-verse="19"/><path d="M147.549,306.222 A4.916,4.916 0 0 0 141.717,308.69 A1.315,1.315 0 0 1 139.443,308.813 A3.975,3.975 0 0 0 132.6,309.131 A3.975,3.975 0 0 0 136.196,314.962 A1.315,1.315 0 0 1 137.377,316.909 A4.916,4.916 0 0 0 138.626,323.118 A2.858,2.858 0 0 1 139.289,326.838 A2.858,2.858 0 0 1 135.682,327.964 A2.858,2.858 0 0 1 134.109,324.528 A1.315,1.315 0 0 1 136.326,324.006 A2.858,2.858 0 0 1 136.454,327.782 A156.339,156.339 0 0 1 132.884,331.972 A1.315,1.315 0 0 1 130.652,331.523 A3.975,3.975 0 0 0 123.946,330.119 A156.339,156.339 0 0 1 120.169,334.123 A2.858,2.858 0 0 1 116.401,334.406 A3.975,3.975 0 0 0 110.068,337.018 A1.315,1.315 0 0 1 107.956,337.87 A4.916,4.916 0 0 0 101.627,338.105 A4.709,4.709 0 0 0 104.479,346.29 A4.916,4.916 0 0 0 109.584,342.542 A2.858,2.858 0 0 1 112.679,340.375 A4.916,4.916 0 0 0 117.947,336.86 A3.975,3.975 0 0 0 113.247,331.875" stroke="#355c55" stroke-width="1.6" stroke-opacity="0.78" data-verse="20"/><path d="M113.247,331.875 A4.916,4.916 0 0 0 109.428,336.927 A4.916,4.916 0 0 0 113.755,341.551 A4.916,4.916 0 0 0 119.049,338.075 A3.975,3.975 0 0 0 114.386,333.055 A2.858,2.858 0 0 1 111.081,331.224 A156.339,156.339 0 0 1 109.323,326.008 A1.315,1.315 0 0 1 110.856,324.324 A4.916,4.916 0 0 0 116.456,321.367 A3.975,3.975 0 0 0 112.292,315.927" stroke="#355c55" stroke-width="1.6" stroke-opacity="0.78" data-verse="21"/><path d="M112.292,315.927 A1.315,1.315 0 0 1 110.922,314.109 A2.858,2.858 0 0 1 114.328,312.471 A156.339,156.339 0 0 1 119.6,314.054 A1.315,1.315 0 0 1 120.086,316.279 A3.975,3.975 0 0 0 121.499,322.982 A1.315,1.315 0 0 1 121.951,325.214 A4.709,4.709 0 0 0 124.702,333.433" stroke="#355c55" stroke-width="1.6" stroke-opacity="0.78" data-verse="22"/><path d="M124.702,333.433 A1.315,1.315 0 0 1 125.684,335.488 A4.916,4.916 0 0 0 126.313,341.79 A3.975,3.975 0 0 0 132.921,339.982 A3.975,3.975 0 0 0 128.136,335.079 A3.975,3.975 0 0 0 126.168,341.642 A4.218,4.218 0 0 0 133.455,339.24 A2.858,2.858 0 0 1 136.25,336.697 A156.339,156.339 0 0 1 141.754,336.706 A4.916,4.916 0 0 0 146.676,332.72 A156.339,156.339 0 0 1 147.813,327.335 A4.916,4.916 0 0 0 144.921,321.7 A1.315,1.315 0 0 1 144.631,319.442 A156.339,156.339 0 0 1 149.063,316.178 A4.916,4.916 0 0 0 150.653,310.048" stroke="#355c55" stroke-width="1.6" stroke-opacity="0.78" data-verse="23"/><path d="M150.653,310.048 A2.858,2.858 0 0 1 151.684,306.412 A4.709,4.709 0 0 0 150.212,297.87 A4.218,4.218 0 0 0 145.509,303.932 A3.975,3.975 0 0 0 152.351,304.275 A4.218,4.218 0 0 0 148.279,297.773 A4.218,4.218 0 0 0 146.026,305.107 A1.315,1.315 0 0 1 145.568,307.338 A4.218,4.218 0 0 0 144.753,314.966 A156.339,156.339 0 0 1 149.438,317.856 A156.339,156.339 0 0 1 154.018,320.91 A3.975,3.975 0 0 0 160.237,318.036" stroke="#355c55" stroke-width="1.6" stroke-opacity="0.78" data-verse="24"/><path d="M160.237,318.036 A156.339,156.339 0 0 1 160.879,312.569 A3.975,3.975 0 0 0 155.496,308.332 A156.339,156.339 0 0 1 150.333,310.24 A2.858,2.858 0 0 1 146.832,308.818 A156.339,156.339 0 0 1 144.461,303.851 A2.858,2.858 0 0 1 145.558,300.234 A2.858,2.858 0 0 1 149.284,300.866 A156.339,156.339 0 0 1 152.672,305.205 A156.339,156.339 0 0 1 155.905,309.66" stroke="#355c55" stroke-width="1.6" stroke-opacity="0.78" data-verse="25"/><path d="M155.905,309.66 A1.315,1.315 0 0 1 154.943,311.724 A1.315,1.315 0 0 1 153.632,309.862 A3.975,3.975 0 0 0 149.732,304.229 A2.858,2.858 0 0 1 146.721,301.946 A156.339,156.339 0 0 1 145.724,296.532 A2.858,2.858 0 0 1 147.724,293.326 A156.339,156.339 0 0 1 153.024,291.839 A4.916,4.916 0 0 0 156.678,286.667 A156.339,156.339 0 0 1 156.31,281.175 A2.858,2.858 0 0 1 158.665,278.22 A156.339,156.339 0 0 1 164.1,277.352" stroke="#355c55" stroke-width="1.6" stroke-opacity="0.78" data-verse="26"/><path d="M164.1,277.352 A156.339,156.339 0 0 1 169.563,276.677 A4.916,4.916 0 0 0 173.951,272.111 A4.916,4.916 0 0 0 170.2,267.008 A4.916,4.916 0 0 0 164.533,269.836 A1.315,1.315 0 0 1 162.272,270.1 A156.339,156.339 0 0 1 159.058,265.631 A1.315,1.315 0 0 1 160.029,263.571 A156.339,156.339 0 0 1 165.521,263.205 A2.858,2.858 0 0 1 168.476,265.56 A156.339,156.339 0 0 1 169.341,270.996 A4.916,4.916 0 0 0 174.057,275.223 A2.858,2.858 0 0 1 176.814,277.808 A156.339,156.339 0 0 1 177.243,283.295 A4.916,4.916 0 0 0 181.606,287.885 A2.858,2.858 0 0 1 184.148,290.682 A4.916,4.916 0 0 0 188.301,295.462 A1.315,1.315 0 0 1 189.122,297.586 A4.218,4.218 0 0 0 192.561,304.444 A156.339,156.339 0 0 1 198.064,304.343 A4.916,4.916 0 0 0 202.906,300.261 A2.858,2.858 0 0 1 205.849,297.89 A2.858,2.858 0 0 1 208.572,300.511 A2.858,2.858 0 0 1 206.316,303.542 A4.916,4.916 0 0 0 202.422,308.537 A1.315,1.315 0 0 1 200.496,309.751 A2.858,2.858 0 0 1 199.148,306.221 A1.315,1.315 0 0 1 201.393,305.842 A4.916,4.916 0 0 0 207.625,306.97 A4.916,4.916 0 0 0 209.799,301.022" stroke="#355c55" stroke-width="1.6" stroke-opacity="0.78" data-verse="27"/><path d="M209.799,301.022 A2.858,2.858 0 0 1 211.175,297.503 A156.339,156.339 0 0 1 216.112,295.068 A3.975,3.975 0 0 0 216.739,288.246 A1.315,1.315 0 0 1 216.965,285.98 A2.858,2.858 0 0 1 220.578,287.086 A2.858,2.858 0 0 1 219.938,290.81 A156.339,156.339 0 0 1 215.591,294.187 A1.315,1.315 0 0 1 213.497,293.294 A2.858,2.858 0 0 1 215.633,290.177 A4.218,4.218 0 0 0 217.013,282.63 A156.339,156.339 0 0 1 212.556,279.399 A1.315,1.315 0 0 1 212.829,277.139 A156.339,156.339 0 0 1 217.927,275.062 A4.916,4.916 0 0 0 220.974,269.51 A4.916,4.916 0 0 0 216.022,265.562 A5.843,5.843 0 0 0 212.153,275.64 A4.916,4.916 0 0 0 218.475,276.02 A2.858,2.858 0 0 1 222.241,276.331 A4.916,4.916 0 0 0 228.539,276.994" stroke="#355c55" stroke-width="1.6" stroke-opacity="0.78" data-verse="28"/><path d="M228.539,276.994 A4.916,4.916 0 0 0 230.265,270.9 A1.315,1.315 0 0 1 231.592,269.05 A4.916,4.916 0 0 0 236.812,265.464 A156.339,156.339 0 0 1 238.368,260.184 A156.339,156.339 0 0 1 240.109,254.962 A1.315,1.315 0 0 1 242.348,254.543 A156.339,156.339 0 0 1 245.861,258.781 A2.858,2.858 0 0 1 245.681,262.555 A2.858,2.858 0 0 1 241.914,262.853 A156.339,156.339 0 0 1 237.568,259.474 A2.858,2.858 0 0 1 236.928,255.75 A2.858,2.858 0 0 1 240.542,254.646 A4.916,4.916 0 0 0 246.639,252.931 A4.916,4.916 0 0 0 245.988,246.631 A3.975,3.975 0 0 0 239.386,248.462 A156.339,156.339 0 0 1 237.868,253.753 A4.916,4.916 0 0 0 240.35,259.579 A156.339,156.339 0 0 1 245.218,262.149 A4.916,4.916 0 0 0 251.429,260.914 A4.916,4.916 0 0 0 251.27,254.583 A156.339,156.339 0 0 1 247.693,250.399 A3.975,3.975 0 0 0 240.927,251.473" stroke="#355c55" stroke-width="1.6" stroke-opacity="0.78" data-verse="29"/><path d="M240.927,251.473 A4.916,4.916 0 0 0 242.949,257.474 A1.315,1.315 0 0 1 242.9,259.751 A3.975,3.975 0 0 0 242.701,266.599 A1.315,1.315 0 0 1 242.617,268.874 A156.339,156.339 0 0 1 237.711,271.369 A1.315,1.315 0 0 1 235.823,270.095 A3.975,3.975 0 0 0 230.173,266.221 A156.339,156.339 0 0 1 225.146,268.464 A3.975,3.975 0 0 0 224.258,275.257" stroke="#355c55" stroke-width="1.6" stroke-opacity="0.78" data-verse="30"/><path d="M224.258,275.257 A2.858,2.858 0 0 1 224.958,278.971 A156.339,156.339 0 0 1 222.064,283.653 A2.858,2.858 0 0 1 218.43,284.689 A156.339,156.339 0 0 1 213.503,282.234 A4.916,4.916 0 0 0 207.323,283.615 A156.339,156.339 0 0 1 203.91,287.934 A2.858,2.858 0 0 1 200.181,288.545 A156.339,156.339 0 0 1 195.569,285.54 A4.916,4.916 0 0 0 189.271,286.202 A2.858,2.858 0 0 1 185.504,286.513 A156.339,156.339 0 0 1 181.147,283.149 A2.858,2.858 0 0 1 180.495,279.427 A2.858,2.858 0 0 1 184.105,278.31 A2.858,2.858 0 0 1 185.668,281.751 A156.339,156.339 0 0 1 183.972,286.987 A4.916,4.916 0 0 0 186.255,292.894 A4.916,4.916 0 0 0 192.465,291.65 A3.975,3.975 0 0 0 190.018,285.251 A1.315,1.315 0 0 1 189.221,283.118 A3.975,3.975 0 0 0 186.873,276.682 A156.339,156.339 0 0 1 181.478,275.589 A156.339,156.339 0 0 1 176.125,274.306 A156.339,156.339 0 0 1 170.821,272.836 A156.339,156.339 0 0 1 165.571,271.18 A2.858,2.858 0 0 1 163.676,267.911 A1.315,1.315 0 0 1 165.831,267.178 A3.975,3.975 0 0 0 172.334,265.021 A2.858,2.858 0 0 1 175.373,262.775 A2.858,2.858 0 0 1 177.984,265.506 A2.858,2.858 0 0 1 175.605,268.441 A4.218,4.218 0 0 0 173.621,275.852" stroke="#355c55" stroke-width="1.6" stroke-opacity="0.78" data-verse="31"/><path d="M173.621,275.852 A4.916,4.916 0 0 0 179.954,275.792 A156.339,156.339 0 0 1 184.193,272.281 A1.315,1.315 0 0 1 186.315,273.109 A3.975,3.975 0 0 0 192.677,275.648 A3.975,3.975 0 0 0 191.813,268.852 A4.916,4.916 0 0 0 185.752,270.688 A4.916,4.916 0 0 0 186.528,276.973 A2.858,2.858 0 0 1 186.906,280.733 A4.916,4.916 0 0 0 187.4,287.046 A1.315,1.315 0 0 1 186.796,289.242 A2.858,2.858 0 0 1 183.42,287.544 A1.315,1.315 0 0 1 184.822,285.75 A4.218,4.218 0 0 0 188.947,279.282" stroke="#355c55" stroke-width="1.6" stroke-opacity="0.78" data-verse="32"/><path d="M188.947,279.282 A2.858,2.858 0 0 1 189.504,275.544 A156.339,156.339 0 0 1 193.773,272.069 A3.975,3.975 0 0 0 192.862,265.279 A1.315,1.315 0 0 1 192.576,263.02 A156.339,156.339 0 0 1 197.015,259.765 A1.315,1.315 0 0 1 199.084,260.716 A2.858,2.858 0 0 1 196.862,263.773 A2.858,2.858 0 0 1 193.55,261.954 A156.339,156.339 0 0 1 191.772,256.745 A4.218,4.218 0 0 0 184.153,255.845" stroke="#355c55" stroke-width="1.6" stroke-opacity="0.78" data-verse="33"/><path d="M184.153,255.845 A2.858,2.858 0 0 1 180.545,256.97 A3.975,3.975 0 0 0 174.964,260.943 A156.339,156.339 0 0 1 175.342,266.434 A1.315,1.315 0 0 1 173.432,267.674 A156.339,156.339 0 0 1 168.57,265.093 A1.315,1.315 0 0 1 168.527,262.816 A156.339,156.339 0 0 1 173.287,260.053 A2.858,2.858 0 0 1 176.98,260.854 A1.315,1.315 0 0 1 176.07,262.941 A2.858,2.858 0 0 1 172.97,260.78 A156.339,156.339 0 0 1 171.757,255.411 A156.339,156.339 0 0 1 170.734,250.002 A1.315,1.315 0 0 1 172.484,248.546 A3.975,3.975 0 0 0 177.784,244.204 A1.315,1.315 0 0 1 179.556,242.775 A156.339,156.339 0 0 1 184.658,244.843 A4.916,4.916 0 0 0 190.713,242.988 A3.975,3.975 0 0 0 187.643,236.864" stroke="#355c55" stroke-width="1.6" stroke-opacity="0.78" data-verse="34"/><path d="M187.643,236.864 A1.315,1.315 0 0 1 186.638,234.82 A3.975,3.975 0 0 0 183.663,228.65 A3.975,3.975 0 0 0 179.709,234.244 A1.315,1.315 0 0 1 178.38,236.094 A1.315,1.315 0 0 1 177.439,234.021 A4.218,4.218 0 0 0 173.612,227.371 A156.339,156.339 0 0 1 168.123,227.788 A3.975,3.975 0 0 0 164.996,233.884 A156.339,156.339 0 0 1 167.858,238.585 A156.339,156.339 0 0 1 170.553,243.385 A2.858,2.858 0 0 1 169.698,247.066 A3.975,3.975 0 0 0 170.302,253.89" stroke="#355c55" stroke-width="1.6" stroke-opacity="0.78" data-verse="35"/><path d="M170.302,253.89 A4.916,4.916 0 0 0 176.429,252.288 A2.858,2.858 0 0 1 180.105,251.414 A2.858,2.858 0 0 1 181.436,254.951 A2.858,2.858 0 0 1 178.095,256.717 A1.315,1.315 0 0 1 177.447,254.535 A156.339,156.339 0 0 1 181.298,250.602 A1.315,1.315 0 0 1 183.494,251.205 A156.339,156.339 0 0 1 184.797,256.553 A2.858,2.858 0 0 1 182.983,259.868 A1.315,1.315 0 0 1 181.239,258.404 A1.315,1.315 0 0 1 183.377,257.622 A156.339,156.339 0 0 1 187.541,261.221 A2.858,2.858 0 0 1 187.987,264.974 A4.916,4.916 0 0 0 188.592,271.278 A2.858,2.858 0 0 1 188.869,275.047 A4.916,4.916 0 0 0 189.192,281.371 A3.975,3.975 0 0 0 195.88,279.886" stroke="#355c55" stroke-width="1.6" stroke-opacity="0.78" data-verse="36"/><path d="M195.88,279.886 A4.916,4.916 0 0 0 193.496,274.019 A4.916,4.916 0 0 0 187.308,275.369 A4.218,4.218 0 0 0 190.89,282.154 A3.975,3.975 0 0 0 194.025,276.062 A2.858,2.858 0 0 1 194.623,272.331 A3.975,3.975 0 0 0 193.55,265.565 A1.315,1.315 0 0 1 193.21,263.313 A4.916,4.916 0 0 0 194.447,257.102 A4.916,4.916 0 0 0 188.538,254.825 A156.339,156.339 0 0 1 183.303,256.527 A3.975,3.975 0 0 0 181.704,263.188" stroke="#355c55" stroke-width="1.6" stroke-opacity="0.78" data-verse="37"/><path d="M181.704,263.188 A4.916,4.916 0 0 0 188.022,263.619 A4.916,4.916 0 0 0 189.523,257.466 A4.916,4.916 0 0 0 183.716,254.939 A1.315,1.315 0 0 1 182.061,253.375 A156.339,156.339 0 0 1 183.422,248.042 A2.858,2.858 0 0 1 186.581,245.967 A1.315,1.315 0 0 1 187.433,248.079 A156.339,156.339 0 0 1 183.971,252.358 A4.916,4.916 0 0 0 183.984,258.691 A2.858,2.858 0 0 1 183.907,262.469 A2.858,2.858 0 0 1 180.149,262.87 A1.315,1.315 0 0 1 180.357,260.602 A3.975,3.975 0 0 0 181.035,253.785 A2.858,2.858 0 0 1 180.22,250.095 A156.339,156.339 0 0 1 182.967,245.325 A156.339,156.339 0 0 1 185.881,240.654 A156.339,156.339 0 0 1 188.957,236.09 A2.858,2.858 0 0 1 192.629,235.198 A3.975,3.975 0 0 0 198.453,231.592" stroke="#355c55" stroke-width="1.6" stroke-opacity="0.78" data-verse="38"/><path d="M198.453,231.592 A156.339,156.339 0 0 1 198.428,226.087 A3.975,3.975 0 0 0 192.571,222.534 A1.315,1.315 0 0 1 190.633,221.338 A4.916,4.916 0 0 0 186.693,216.38 A156.339,156.339 0 0 1 181.318,215.194 A4.916,4.916 0 0 0 175.658,218.034 A156.339,156.339 0 0 1 173.395,223.052 A156.339,156.339 0 0 1 170.957,227.987 A156.339,156.339 0 0 1 168.347,232.833 A156.339,156.339 0 0 1 165.568,237.584" stroke="#355c55" stroke-width="1.6" stroke-opacity="0.78" data-verse="39"/><path d="M165.568,237.584 A2.858,2.858 0 0 1 161.96,238.708 A2.858,2.858 0 0 1 160.391,235.27 A2.858,2.858 0 0 1 163.603,233.28 A4.916,4.916 0 0 0 169.06,230.065 A156.339,156.339 0 0 1 170.98,224.907 A3.975,3.975 0 0 0 166.754,219.514 A156.339,156.339 0 0 1 161.286,220.144 A156.339,156.339 0 0 1 155.799,220.582 A156.339,156.339 0 0 1 150.3,220.826 A1.315,1.315 0 0 1 149.107,218.886 A1.315,1.315 0 0 1 151.383,218.818 A4.916,4.916 0 0 0 157.401,220.79 A4.916,4.916 0 0 0 160.37,215.195 A4.916,4.916 0 0 0 155.363,211.317 A2.858,2.858 0 0 1 152.428,208.937 A1.315,1.315 0 0 1 154.181,207.484 A2.858,2.858 0 0 1 155.974,210.811 A156.339,156.339 0 0 1 154.636,216.15 A4.916,4.916 0 0 0 157.315,221.889 A2.858,2.858 0 0 1 158.836,225.348 A156.339,156.339 0 0 1 157.076,230.564 A2.858,2.858 0 0 1 153.77,232.394 A156.339,156.339 0 0 1 148.416,231.116 A2.858,2.858 0 0 1 146.292,227.991 A2.858,2.858 0 0 1 149.125,225.49 A156.339,156.339 0 0 1 154.629,225.581" stroke="#355c55" stroke-width="1.6" stroke-opacity="0.78" data-verse="40"/><path d="M154.629,225.581 A156.339,156.339 0 0 1 160.126,225.865 A3.975,3.975 0 0 0 164.003,220.217 A156.339,156.339 0 0 1 161.762,215.189 A2.858,2.858 0 0 1 162.952,211.603 A156.339,156.339 0 0 1 167.755,208.913 A3.975,3.975 0 0 0 168.024,202.067 A4.218,4.218 0 0 0 161.567,206.21 A1.315,1.315 0 0 1 159.776,207.617 A2.858,2.858 0 0 1 158.07,204.246 A4.916,4.916 0 0 0 155.336,198.533 A156.339,156.339 0 0 1 150.361,196.177" stroke="#355c55" stroke-width="1.6" stroke-opacity="0.78" data-verse="41"/><path d="M150.361,196.177 A2.858,2.858 0 0 1 148.929,192.68 A156.339,156.339 0 0 1 150.822,187.511 A2.858,2.858 0 0 1 154.174,185.766 A1.315,1.315 0 0 1 154.809,187.953 A2.858,2.858 0 0 1 151.043,188.274 A4.218,4.218 0 0 0 144.328,191.983 A4.916,4.916 0 0 0 148.762,196.505 A2.858,2.858 0 0 1 151.347,199.261 A156.339,156.339 0 0 1 151.421,204.765 A156.339,156.339 0 0 1 151.302,210.268 A1.315,1.315 0 0 1 149.288,211.331 A156.339,156.339 0 0 1 144.679,208.321 A156.339,156.339 0 0 1 140.179,205.151 A156.339,156.339 0 0 1 135.793,201.825 A156.339,156.339 0 0 1 131.527,198.346 A2.858,2.858 0 0 1 130.974,194.608 A2.858,2.858 0 0 1 134.613,193.588 A1.315,1.315 0 0 1 134.785,195.858 A4.218,4.218 0 0 0 136.095,203.417" stroke="#355c55" stroke-width="1.6" stroke-opacity="0.78" data-verse="42"/><path d="M136.095,203.417 A2.858,2.858 0 0 1 138.202,206.554 A156.339,156.339 0 0 1 137.389,211.998 A2.858,2.858 0 0 1 134.457,214.382 A2.858,2.858 0 0 1 131.722,211.774 A3.975,3.975 0 0 0 125.539,208.824 A1.315,1.315 0 0 1 123.492,207.827 A4.916,4.916 0 0 0 119.077,203.287 A2.858,2.858 0 0 1 116.503,200.52 A1.315,1.315 0 0 1 118.443,199.327 A156.339,156.339 0 0 1 123.241,202.025 A4.916,4.916 0 0 0 129.482,200.953 A1.315,1.315 0 0 1 131.724,201.353 A2.858,2.858 0 0 1 130.344,204.871 A156.339,156.339 0 0 1 125.404,207.3 A2.858,2.858 0 0 1 121.775,206.246 A1.315,1.315 0 0 1 122.827,204.226 A2.858,2.858 0 0 1 125.771,206.596 A156.339,156.339 0 0 1 126.611,212.036 A3.975,3.975 0 0 0 132.93,214.683 A4.916,4.916 0 0 0 134.368,208.515 A156.339,156.339 0 0 1 131.959,203.566 A1.315,1.315 0 0 1 133.265,201.701 A4.709,4.709 0 0 0 137.328,194.044" stroke="#355c55" stroke-width="1.6" stroke-opacity="0.78" data-verse="43"/><path d="M137.328,194.044 A156.339,156.339 0 0 1 133.937,189.708 A156.339,156.339 0 0 1 130.701,185.255 A4.916,4.916 0 0 0 124.581,183.626 A156.339,156.339 0 0 1 119.56,185.88 A3.975,3.975 0 0 0 118.686,192.675 A4.916,4.916 0 0 0 125.014,192.424 A156.339,156.339 0 0 1 129.146,188.787 A4.916,4.916 0 0 0 130.197,182.542 A156.339,156.339 0 0 1 127.484,177.753 A4.916,4.916 0 0 0 121.588,175.443 A3.975,3.975 0 0 0 120.188,182.15 A2.858,2.858 0 0 1 120.605,185.906 A3.975,3.975 0 0 0 123.442,192.142 A156.339,156.339 0 0 1 128.905,192.816 A156.339,156.339 0 0 1 134.341,193.683 A4.916,4.916 0 0 0 139.824,190.514 A4.218,4.218 0 0 0 134.347,185.142" stroke="#355c55" stroke-width="1.6" stroke-opacity="0.78" data-verse="44"/><path d="M134.347,185.142 A4.916,4.916 0 0 0 131.284,190.685 A2.858,2.858 0 0 1 129.383,193.951 A2.858,2.858 0 0 1 125.903,192.477 A156.339,156.339 0 0 1 123.607,187.474 A1.315,1.315 0 0 1 124.955,185.639 A1.315,1.315 0 0 1 125.875,187.722 A156.339,156.339 0 0 1 122.552,192.11 A1.315,1.315 0 0 1 120.298,191.79 A156.339,156.339 0 0 1 118.328,186.651 A2.858,2.858 0 0 1 119.708,183.133 A156.339,156.339 0 0 1 124.646,180.702 A156.339,156.339 0 0 1 129.668,178.447 A156.339,156.339 0 0 1 134.766,176.371 A156.339,156.339 0 0 1 139.933,174.475 A4.218,4.218 0 0 0 140.659,166.837" stroke="#355c55" stroke-width="1.6" stroke-opacity="0.78" data-verse="45"/><path d="M140.659,166.837 A2.858,2.858 0 0 1 139.452,163.256 A156.339,156.339 0 0 1 141.67,158.218 A2.858,2.858 0 0 1 145.126,156.69 A2.858,2.858 0 0 1 147.078,159.926 A1.315,1.315 0 0 1 144.936,160.697 A156.339,156.339 0 0 1 140.792,157.073 A2.858,2.858 0 0 1 140.368,153.318 A2.858,2.858 0 0 1 144.04,152.424 A2.858,2.858 0 0 1 145.39,155.953 A2.858,2.858 0 0 1 142.059,157.738 A2.858,2.858 0 0 1 139.868,154.659 A156.339,156.339 0 0 1 140.535,149.195 A1.315,1.315 0 0 1 142.645,148.338 A2.858,2.858 0 0 1 143.352,152.051 A1.315,1.315 0 0 1 141.075,152.029 A1.315,1.315 0 0 1 142.228,150.066 A2.858,2.858 0 0 1 145.047,152.582 A2.858,2.858 0 0 1 142.907,155.696 A156.339,156.339 0 0 1 137.546,156.945 A1.315,1.315 0 0 1 136.017,155.257 A156.339,156.339 0 0 1 137.79,150.046 A1.315,1.315 0 0 1 140.031,149.64 A4.218,4.218 0 0 0 147.415,147.557" stroke="#355c55" stroke-width="1.6" stroke-opacity="0.78" data-verse="46"/><path d="M147.415,147.557 A2.858,2.858 0 0 1 150.318,145.138 A1.315,1.315 0 0 1 151.404,147.139 A2.858,2.858 0 0 1 147.793,148.255 A156.339,156.339 0 0 1 142.813,145.91 A1.315,1.315 0 0 1 142.661,143.638 A1.315,1.315 0 0 1 144.707,144.638 A156.339,156.339 0 0 1 144.995,150.135 A1.315,1.315 0 0 1 143.065,151.343 A2.858,2.858 0 0 1 141.727,147.809 A1.315,1.315 0 0 1 143.974,147.436 A1.315,1.315 0 0 1 143.177,149.57 A2.858,2.858 0 0 1 139.965,147.579 A156.339,156.339 0 0 1 138.464,142.283 A156.339,156.339 0 0 1 137.15,136.938 A1.315,1.315 0 0 1 138.819,135.389 A4.218,4.218 0 0 0 143.918,129.657 A2.858,2.858 0 0 1 145.06,126.054 A1.315,1.315 0 0 1 147.053,127.155 A4.218,4.218 0 0 0 154.093,130.205" stroke="#355c55" stroke-width="1.6" stroke-opacity="0.78" data-verse="47"/><path d="M154.093,130.205 A2.858,2.858 0 0 1 157.871,130.164 A156.339,156.339 0 0 1 161.978,133.83 A156.339,156.339 0 0 1 165.952,137.638 A156.339,156.339 0 0 1 169.79,141.583 A2.858,2.858 0 0 1 169.91,145.361 A4.916,4.916 0 0 0 169.97,151.693 A156.339,156.339 0 0 1 173.481,155.933 A156.339,156.339 0 0 1 176.84,160.294 A2.858,2.858 0 0 1 176.525,164.059 A2.858,2.858 0 0 1 172.749,164.222 A2.858,2.858 0 0 1 172.112,160.497 A156.339,156.339 0 0 1 175.083,155.864 A4.218,4.218 0 0 0 171.046,149.34 A1.315,1.315 0 0 1 169.668,147.527 A4.916,4.916 0 0 0 167.775,141.484 A2.858,2.858 0 0 1 166.727,137.853 A156.339,156.339 0 0 1 169.164,132.918 A156.339,156.339 0 0 1 171.773,128.071" stroke="#355c55" stroke-width="1.6" stroke-opacity="0.78" data-verse="48"/><path d="M171.773,128.071 A2.858,2.858 0 0 1 175.339,126.82 A1.315,1.315 0 0 1 175.656,129.075 A4.916,4.916 0 0 0 174.356,135.273 A4.916,4.916 0 0 0 180.242,137.61 A3.975,3.975 0 0 0 181.673,130.911 A156.339,156.339 0 0 1 177.684,127.117 A1.315,1.315 0 0 1 178.255,124.913 A2.858,2.858 0 0 1 181.656,126.559 A3.975,3.975 0 0 0 188.445,127.478 A2.858,2.858 0 0 1 192.162,126.794 A2.858,2.858 0 0 1 193.309,130.395 A156.339,156.339 0 0 1 191.007,135.395 A1.315,1.315 0 0 1 188.736,135.567 A2.858,2.858 0 0 1 189.196,131.816 A2.858,2.858 0 0 1 192.975,131.799 A4.916,4.916 0 0 0 199.307,131.912 A1.315,1.315 0 0 1 201.435,132.724 A3.975,3.975 0 0 0 207.817,135.213 A4.218,4.218 0 0 0 206.01,127.757" stroke="#355c55" stroke-width="1.6" stroke-opacity="0.78" data-verse="49"/><path d="M206.01,127.757 A156.339,156.339 0 0 1 200.625,126.617 A2.858,2.858 0 0 1 198.422,123.547 A4.916,4.916 0 0 0 194.846,118.32 A156.339,156.339 0 0 1 189.569,116.754 A2.858,2.858 0 0 1 187.618,113.517 A156.339,156.339 0 0 1 188.697,108.119 A3.975,3.975 0 0 0 183.672,103.464 A156.339,156.339 0 0 1 178.372,104.951 A1.315,1.315 0 0 1 176.77,103.334 A2.858,2.858 0 0 1 179.924,101.253 A1.315,1.315 0 0 1 180.781,103.363 A2.858,2.858 0 0 1 177.068,104.069 A156.339,156.339 0 0 1 172.38,101.184 A1.315,1.315 0 0 1 172.482,98.909 A156.339,156.339 0 0 1 177.409,96.454 A2.858,2.858 0 0 1 181.043,97.489 A3.975,3.975 0 0 0 187.889,97.222" stroke="#355c55" stroke-width="1.6" stroke-opacity="0.78" data-verse="50"/><path d="M187.889,97.222 A156.339,156.339 0 0 1 190.58,92.421 A1.315,1.315 0 0 1 192.857,92.43 A4.916,4.916 0 0 0 198.806,94.603 A156.339,156.339 0 0 1 204.01,92.81 A156.339,156.339 0 0 1 209.274,91.201 A1.315,1.315 0 0 1 210.913,92.781 A156.339,156.339 0 0 1 209.498,98.1 A2.858,2.858 0 0 1 206.318,100.143 A2.858,2.858 0 0 1 203.891,97.246 A156.339,156.339 0 0 1 204.124,91.746 A4.916,4.916 0 0 0 200.343,86.666 A156.339,156.339 0 0 1 195.009,85.31 A3.975,3.975 0 0 0 190.1,90.09" stroke="#355c55" stroke-width="1.6" stroke-opacity="0.78" data-verse="51"/><path d="M190.1,90.09 A4.916,4.916 0 0 0 195.213,93.827 A4.709,4.709 0 0 0 198.047,85.636 A156.339,156.339 0 0 1 194.029,81.874 A1.315,1.315 0 0 1 194.582,79.665 A4.916,4.916 0 0 0 198.115,74.409 A156.339,156.339 0 0 1 197.619,68.927 A156.339,156.339 0 0 1 197.316,63.431 A3.975,3.975 0 0 0 191.286,60.178 A4.916,4.916 0 0 0 189.251,66.175 A3.975,3.975 0 0 0 196.014,67.265 A3.975,3.975 0 0 0 193.687,60.821 A2.858,2.858 0 0 1 191.362,57.843 A2.858,2.858 0 0 1 194.023,55.16 A4.916,4.916 0 0 0 198.583,50.765 A2.858,2.858 0 0 1 201.362,48.204 A3.975,3.975 0 0 0 204.706,42.225 A3.975,3.975 0 0 0 197.855,42.2" stroke="#355c55" stroke-width="1.6" stroke-opacity="0.78" data-verse="52"/><path d="M197.855,42.2 A4.916,4.916 0 0 0 198.888,48.448 A156.339,156.339 0 0 1 203.009,52.097 A1.315,1.315 0 0 1 202.518,54.321 A4.916,4.916 0 0 0 199.132,59.672 A4.916,4.916 0 0 0 203.829,63.921 A2.858,2.858 0 0 1 206.574,66.518 A2.858,2.858 0 0 1 204.344,69.568 A3.975,3.975 0 0 0 202.222,76.082 A4.218,4.218 0 0 0 209.563,73.853 A1.315,1.315 0 0 1 211.668,72.986 A156.339,156.339 0 0 1 215.972,76.418 A2.858,2.858 0 0 1 216.566,80.15 A2.858,2.858 0 0 1 212.939,81.21 A1.315,1.315 0 0 1 212.742,78.941 A4.218,4.218 0 0 0 211.348,71.397" stroke="#355c55" stroke-width="1.6" stroke-opacity="0.78" data-verse="53"/><path d="M211.348,71.397 A1.315,1.315 0 0 1 210.722,69.208 A156.339,156.339 0 0 1 214.614,65.315 A2.858,2.858 0 0 1 218.389,65.143 A3.975,3.975 0 0 0 224.796,62.716 A2.858,2.858 0 0 1 227.738,60.345 A4.218,4.218 0 0 0 231.23,53.514 A156.339,156.339 0 0 1 227.891,49.138 A2.858,2.858 0 0 1 228.223,45.373 A2.858,2.858 0 0 1 232,45.228 A156.339,156.339 0 0 1 236.205,48.779 A156.339,156.339 0 0 1 240.283,52.477 A4.218,4.218 0 0 0 247.385,49.575 A2.858,2.858 0 0 1 249.997,46.844 A156.339,156.339 0 0 1 255.488,46.471 A2.858,2.858 0 0 1 258.446,48.823 A3.975,3.975 0 0 0 264.869,51.207" stroke="#355c55" stroke-width="1.6" stroke-opacity="0.78" data-verse="54"/><path d="M264.869,51.207 A1.315,1.315 0 0 1 266.997,52.016 A156.339,156.339 0 0 1 267.786,57.464 A4.218,4.218 0 0 0 275.11,59.75 A4.916,4.916 0 0 0 275.31,53.42 A1.315,1.315 0 0 1 276.15,51.304 A1.315,1.315 0 0 1 277.566,53.087 A3.975,3.975 0 0 0 281.786,58.483" stroke="#355c55" stroke-width="1.6" stroke-opacity="0.78" data-verse="55"/><path d="M281.786,58.483 A2.858,2.858 0 0 1 284.925,60.588 A4.916,4.916 0 0 0 290.104,64.233 A2.858,2.858 0 0 1 293.145,66.476 A156.339,156.339 0 0 1 294.214,71.876 A2.858,2.858 0 0 1 292.257,75.108 A4.916,4.916 0 0 0 288.857,80.451 A1.315,1.315 0 0 1 287.055,81.843 A1.315,1.315 0 0 1 286.746,79.587 A156.339,156.339 0 0 1 291.151,76.286 A2.858,2.858 0 0 1 294.912,76.651 A1.315,1.315 0 0 1 294.252,78.83 A156.339,156.339 0 0 1 288.872,79.993 A4.709,4.709 0 0 0 287.095,88.476 A1.315,1.315 0 0 1 286.905,90.746 A2.858,2.858 0 0 1 283.274,89.697 A2.858,2.858 0 0 1 283.856,85.963 A2.858,2.858 0 0 1 287.634,86.07 A3.975,3.975 0 0 0 294.202,84.123" stroke="#355c55" stroke-width="1.6" stroke-opacity="0.78" data-verse="56"/><path d="M294.202,84.123 A2.858,2.858 0 0 1 297.311,81.975 A4.916,4.916 0 0 0 302.601,78.493 A2.858,2.858 0 0 1 305.803,76.486 A4.218,4.218 0 0 0 310.079,70.117 A1.315,1.315 0 0 1 311.162,68.113 A4.916,4.916 0 0 0 315.885,63.895 A1.315,1.315 0 0 1 317.998,63.045 A4.916,4.916 0 0 0 324.326,62.815 A4.218,4.218 0 0 0 322.007,55.503 A2.858,2.858 0 0 1 319.495,52.679 A156.339,156.339 0 0 1 319.565,47.175 A4.916,4.916 0 0 0 315.635,42.209 A2.858,2.858 0 0 1 313.357,39.194 A3.975,3.975 0 0 0 307.732,35.284 A2.858,2.858 0 0 1 304.112,34.2 A1.315,1.315 0 0 1 305.181,32.189 A2.858,2.858 0 0 1 308.104,34.583 A2.858,2.858 0 0 1 306.098,37.785 A1.315,1.315 0 0 1 304.443,36.221 A2.858,2.858 0 0 1 307.527,34.038 A156.339,156.339 0 0 1 312.99,34.717" stroke="#355c55" stroke-width="1.6" stroke-opacity="0.78" data-verse="57"/><path d="M312.99,34.717 A156.339,156.339 0 0 1 318.425,35.588 A2.858,2.858 0 0 1 320.778,38.546 A4.916,4.916 0 0 0 324.609,43.588 A4.916,4.916 0 0 0 330.231,40.672 A156.339,156.339 0 0 1 332.425,35.625 A3.975,3.975 0 0 0 328.497,30.012 A3.975,3.975 0 0 0 325.493,36.17 A2.858,2.858 0 0 1 324.976,39.913 A4.916,4.916 0 0 0 323.968,46.165 A2.858,2.858 0 0 1 323.283,49.882 A4.218,4.218 0 0 0 325.089,57.338 A1.315,1.315 0 0 1 325.834,59.49 A156.339,156.339 0 0 1 322.162,63.59 A156.339,156.339 0 0 1 318.348,67.559" stroke="#355c55" stroke-width="1.6" stroke-opacity="0.78" data-verse="58"/><path d="M318.348,67.559 A156.339,156.339 0 0 1 314.397,71.391 A2.858,2.858 0 0 1 310.619,71.505 A4.916,4.916 0 0 0 304.287,71.555 A156.339,156.339 0 0 1 300.042,75.059 A156.339,156.339 0 0 1 295.676,78.412 A4.916,4.916 0 0 0 294.209,84.572 A156.339,156.339 0 0 1 296.595,89.533 A4.218,4.218 0 0 0 304.267,89.517 A2.858,2.858 0 0 1 307.715,87.97 A1.315,1.315 0 0 1 308.221,90.19 A156.339,156.339 0 0 1 304.124,93.866 A156.339,156.339 0 0 1 299.9,97.396" stroke="#355c55" stroke-width="1.6" stroke-opacity="0.78" data-verse="59"/><path d="M299.9,97.396 A4.218,4.218 0 0 0 301.796,104.83 A1.315,1.315 0 0 1 302.567,106.972 A2.858,2.858 0 0 1 298.829,107.529 A3.975,3.975 0 0 0 292.703,110.597 A156.339,156.339 0 0 1 292.233,116.081 A156.339,156.339 0 0 1 291.569,121.546 A3.975,3.975 0 0 0 296.936,125.804 A2.858,2.858 0 0 1 300.481,127.115 A1.315,1.315 0 0 1 299.287,129.054 A156.339,156.339 0 0 1 293.788,128.807 A4.916,4.916 0 0 0 288.698,132.575 A156.339,156.339 0 0 1 287.329,137.907 A2.858,2.858 0 0 1 284.168,139.977 A156.339,156.339 0 0 1 278.734,139.1 A156.339,156.339 0 0 1 273.334,138.032 A2.858,2.858 0 0 1 271.09,134.991 A2.858,2.858 0 0 1 273.823,132.382" stroke="#355c55" stroke-width="1.6" stroke-opacity="0.78" data-verse="60"/><path d="M273.823,132.382 A156.339,156.339 0 0 1 279.326,132.258 A156.339,156.339 0 0 1 284.83,132.328 A4.916,4.916 0 0 0 289.796,128.399 A156.339,156.339 0 0 1 290.993,123.026 A2.858,2.858 0 0 1 294.087,120.855 A156.339,156.339 0 0 1 299.546,121.558 A3.975,3.975 0 0 0 303.842,116.221 A156.339,156.339 0 0 1 301.991,111.038 A1.315,1.315 0 0 1 303.493,109.327 A2.858,2.858 0 0 1 305.788,112.329 A1.315,1.315 0 0 1 303.743,113.33 A2.858,2.858 0 0 1 302.78,109.676 A156.339,156.339 0 0 1 305.333,104.799 A1.315,1.315 0 0 1 307.61,104.743 A3.975,3.975 0 0 0 314.459,104.625 A1.315,1.315 0 0 1 316.736,104.604 A4.916,4.916 0 0 0 322.713,106.698 A5.267,5.267 0 0 0 323.025,96.98 A156.339,156.339 0 0 1 318.056,94.613 A5.267,5.267 0 0 0 310.706,100.977 A1.315,1.315 0 0 1 309.192,102.677 A4.916,4.916 0 0 0 303.625,105.696 A156.339,156.339 0 0 1 301.523,110.784 A1.315,1.315 0 0 1 299.261,111.046 A2.858,2.858 0 0 1 299.572,107.28 A156.339,156.339 0 0 1 303.604,103.532 A156.339,156.339 0 0 1 307.765,99.929" stroke="#355c55" stroke-width="1.6" stroke-opacity="0.78" data-verse="61"/><path d="M307.765,99.929 A4.916,4.916 0 0 0 308.868,93.693 A156.339,156.339 0 0 1 306.194,88.882 A1.315,1.315 0 0 1 307.397,86.948 A2.858,2.858 0 0 1 310.152,89.536 A156.339,156.339 0 0 1 310.574,95.024 A4.916,4.916 0 0 0 314.933,99.618 A2.858,2.858 0 0 1 317.472,102.418 A2.858,2.858 0 0 1 315.015,105.289 A4.218,4.218 0 0 0 312.837,112.645 A1.315,1.315 0 0 1 312.402,114.88 A156.339,156.339 0 0 1 307.168,116.586 A1.315,1.315 0 0 1 305.501,115.035 A156.339,156.339 0 0 1 306.819,109.691 A4.218,4.218 0 0 0 300.893,104.818 A4.916,4.916 0 0 0 298.327,110.608 A2.858,2.858 0 0 1 296.718,114.028 A1.315,1.315 0 0 1 294.888,112.673 A2.858,2.858 0 0 1 297.689,110.136 A3.975,3.975 0 0 0 301.083,104.185 A156.339,156.339 0 0 1 298.431,99.361 A156.339,156.339 0 0 1 295.952,94.447" stroke="#355c55" stroke-width="1.6" stroke-opacity="0.78" data-verse="62"/><path d="M295.952,94.447 A2.858,2.858 0 0 1 296.968,90.807 A156.339,156.339 0 0 1 301.636,87.89 A3.975,3.975 0 0 0 301.576,81.039 A1.315,1.315 0 0 1 301.574,78.762 A2.858,2.858 0 0 1 305.28,79.5 A2.858,2.858 0 0 1 305.016,83.269 A156.339,156.339 0 0 1 301.03,87.066 A1.315,1.315 0 0 1 298.856,86.387 A2.858,2.858 0 0 1 300.669,83.071 A4.218,4.218 0 0 0 301.286,75.424 A2.858,2.858 0 0 1 300.028,71.861 A156.339,156.339 0 0 1 302.174,66.792 A2.858,2.858 0 0 1 305.608,65.214 A3.975,3.975 0 0 0 310.635,60.56 A1.315,1.315 0 0 1 312.317,59.026 A156.339,156.339 0 0 1 317.535,60.78 A1.315,1.315 0 0 1 317.948,63.02 A4.916,4.916 0 0 0 316.915,69.268 A2.858,2.858 0 0 1 316.215,72.981 A4.709,4.709 0 0 0 318.449,81.356 A2.858,2.858 0 0 1 320.905,84.228 A4.916,4.916 0 0 0 324.913,89.132" stroke="#355c55" stroke-width="1.6" stroke-opacity="0.78" data-verse="63"/><path d="M324.913,89.132 A4.916,4.916 0 0 0 330.428,86.018 A2.858,2.858 0 0 1 333.759,84.235 A156.339,156.339 0 0 1 339.095,85.587 A156.339,156.339 0 0 1 344.38,87.126 A2.858,2.858 0 0 1 346.347,90.353 A156.339,156.339 0 0 1 345.296,95.756 A3.975,3.975 0 0 0 350.345,100.386 A156.339,156.339 0 0 1 355.637,98.87 A1.315,1.315 0 0 1 357.248,100.48 A2.858,2.858 0 0 1 354.105,102.577 A156.339,156.339 0 0 1 348.663,101.747 A2.858,2.858 0 0 1 346.288,98.807 A3.975,3.975 0 0 0 340.538,95.082 A156.339,156.339 0 0 1 335.573,97.457 A4.218,4.218 0 0 0 335.57,105.129 A156.339,156.339 0 0 1 340.534,107.507 A156.339,156.339 0 0 1 345.412,110.059" stroke="#355c55" stroke-width="1.6" stroke-opacity="0.78" data-verse="64"/><path d="M345.412,110.059 A4.218,4.218 0 0 0 351.554,105.462 A156.339,156.339 0 0 1 350.482,100.063 A3.975,3.975 0 0 0 344.056,97.689 A1.315,1.315 0 0 1 341.926,96.884 A4.916,4.916 0 0 0 337.115,92.766 A156.339,156.339 0 0 1 331.612,92.624 A156.339,156.339 0 0 1 326.118,92.289 A2.858,2.858 0 0 1 323.487,89.576 A2.858,2.858 0 0 1 325.846,86.624 A2.858,2.858 0 0 1 329.072,88.592 A4.916,4.916 0 0 0 334.403,92.01" stroke="#355c55" stroke-width="1.6" stroke-opacity="0.78" data-verse="65"/><path d="M334.403,92.01 A156.339,156.339 0 0 1 339.873,91.395 A2.858,2.858 0 0 1 342.932,93.615 A4.916,4.916 0 0 0 347.973,97.448 A4.916,4.916 0 0 0 352.609,93.134 A156.339,156.339 0 0 1 353.373,87.683 A3.975,3.975 0 0 0 348.085,83.327 A3.975,3.975 0 0 0 346.839,90.064 A2.858,2.858 0 0 1 347.342,93.809 A4.916,4.916 0 0 0 348.045,100.103 A2.858,2.858 0 0 1 348.38,103.867 A2.858,2.858 0 0 1 344.688,104.674 A2.858,2.858 0 0 1 343.422,101.114 A4.916,4.916 0 0 0 341.434,95.101 A1.315,1.315 0 0 1 341.496,92.824 A2.858,2.858 0 0 1 345.18,93.666 A1.315,1.315 0 0 1 344.247,95.743 A4.916,4.916 0 0 0 339.845,100.296 A3.975,3.975 0 0 0 345.495,104.17" stroke="#355c55" stroke-width="1.6" stroke-opacity="0.78" data-verse="66"/><path d="M345.495,104.17 A156.339,156.339 0 0 1 350.521,101.927 A4.916,4.916 0 0 0 353.382,96.277 A4.916,4.916 0 0 0 348.303,92.495 A3.975,3.975 0 0 0 345.185,98.595 A4.218,4.218 0 0 0 352.784,97.546 A1.315,1.315 0 0 1 355,97.02 A4.916,4.916 0 0 0 361.292,97.736 A4.916,4.916 0 0 0 363.07,91.658" stroke="#355c55" stroke-width="1.6" stroke-opacity="0.78" data-verse="67"/><path d="M363.07,91.658 A2.858,2.858 0 0 1 364.212,88.056 A1.315,1.315 0 0 1 366.205,89.156 A4.916,4.916 0 0 0 370.381,93.918 A156.339,156.339 0 0 1 375.807,94.842 A2.858,2.858 0 0 1 378.131,97.822 A1.315,1.315 0 0 1 376.095,98.843 A4.916,4.916 0 0 0 369.807,99.591 A4.916,4.916 0 0 0 369.472,105.915 A156.339,156.339 0 0 1 372.712,110.365 A2.858,2.858 0 0 1 372.296,114.12 A156.339,156.339 0 0 1 368.16,117.752 A4.916,4.916 0 0 0 367.101,123.996" stroke="#355c55" stroke-width="1.6" stroke-opacity="0.78" data-verse="68"/><path d="M367.101,123.996 A156.339,156.339 0 0 1 369.808,128.789 A156.339,156.339 0 0 1 372.344,133.674 A4.916,4.916 0 0 0 378.153,136.197 A3.975,3.975 0 0 0 379.796,129.546 A4.218,4.218 0 0 0 372.637,132.302 A4.916,4.916 0 0 0 376.411,137.388 A156.339,156.339 0 0 1 381.744,138.75 A2.858,2.858 0 0 1 383.818,141.909 A2.858,2.858 0 0 1 380.946,144.365 A2.858,2.858 0 0 1 378.147,141.825 A2.858,2.858 0 0 1 380.314,138.729 A1.315,1.315 0 0 1 381.887,140.375 A2.858,2.858 0 0 1 378.696,142.399 A156.339,156.339 0 0 1 373.275,141.443 A156.339,156.339 0 0 1 367.891,140.297" stroke="#355c55" stroke-width="1.6" stroke-opacity="0.78" data-verse="69"/><path d="M367.891,140.297 A156.339,156.339 0 0 1 362.551,138.962 A2.858,2.858 0 0 1 360.461,135.813 A3.975,3.975 0 0 0 355.084,131.568 A1.315,1.315 0 0 1 353.308,130.143 A2.858,2.858 0 0 1 356.205,127.716 A156.339,156.339 0 0 1 361.705,127.951 A4.916,4.916 0 0 0 366.786,124.171 A4.916,4.916 0 0 0 363.927,118.52 A156.339,156.339 0 0 1 358.901,116.274 A156.339,156.339 0 0 1 353.958,113.853 A4.916,4.916 0 0 0 347.787,115.276 A1.315,1.315 0 0 1 345.526,115.005 A2.858,2.858 0 0 1 346.705,111.414 A2.858,2.858 0 0 1 350.415,112.131 A3.975,3.975 0 0 0 357.212,111.272 A2.858,2.858 0 0 1 360.628,109.656 A2.858,2.858 0 0 1 362.662,112.841 A2.858,2.858 0 0 1 359.76,115.26" stroke="#355c55" stroke-width="1.6" stroke-opacity="0.78" data-verse="70"/><path d="M359.76,115.26 A4.218,4.218 0 0 0 356.381,122.148 A4.916,4.916 0 0 0 362.605,123.314 A4.916,4.916 0 0 0 364.815,117.379 A4.218,4.218 0 0 0 357.171,116.724 A4.916,4.916 0 0 0 358.339,122.949 A2.858,2.858 0 0 1 358.954,126.677 A156.339,156.339 0 0 1 355.953,131.292 A156.339,156.339 0 0 1 352.791,135.798 A4.916,4.916 0 0 0 353.237,142.115" stroke="#355c55" stroke-width="1.6" stroke-opacity="0.78" data-verse="71"/><path d="M353.237,142.115 A156.339,156.339 0 0 1 356.999,146.133 A3.975,3.975 0 0 0 363.71,144.754 A156.339,156.339 0 0 1 365.583,139.578 A156.339,156.339 0 0 1 367.637,134.471 A156.339,156.339 0 0 1 369.869,129.439 A156.339,156.339 0 0 1 372.277,124.49 A156.339,156.339 0 0 1 374.858,119.628 A156.339,156.339 0 0 1 377.608,114.86 A1.315,1.315 0 0 1 379.885,114.896 A2.858,2.858 0 0 1 379.084,118.589 A156.339,156.339 0 0 1 374.595,121.776 A156.339,156.339 0 0 1 369.997,124.802" stroke="#355c55" stroke-width="1.6" stroke-opacity="0.78" data-verse="72"/><path d="M369.997,124.802 A4.916,4.916 0 0 0 368.086,130.839 A4.218,4.218 0 0 0 375.753,131.112 A1.315,1.315 0 0 1 378.026,130.975 A2.858,2.858 0 0 1 377.509,134.718 A156.339,156.339 0 0 1 373.276,138.238 A156.339,156.339 0 0 1 368.923,141.606 A156.339,156.339 0 0 1 364.454,144.819 A3.975,3.975 0 0 0 364.956,151.652 A4.916,4.916 0 0 0 371.106,150.141 A2.858,2.858 0 0 1 374.795,149.321 A4.916,4.916 0 0 0 381.007,148.087 A2.858,2.858 0 0 1 384.729,147.434 A156.339,156.339 0 0 1 389.375,150.385 A156.339,156.339 0 0 1 393.914,153.499" stroke="#355c55" stroke-width="1.6" stroke-opacity="0.78" data-verse="73"/><path d="M393.914,153.499 A156.339,156.339 0 0 1 398.341,156.77 A2.858,2.858 0 0 1 399.072,160.478 A1.315,1.315 0 0 1 396.795,160.471 A3.975,3.975 0 0 0 389.944,160.399 A4.916,4.916 0 0 0 390.934,166.654 A3.975,3.975 0 0 0 397.427,164.47 A3.975,3.975 0 0 0 392.369,159.85 A3.975,3.975 0 0 0 390.781,166.514 A1.315,1.315 0 0 1 390.237,168.725 A2.858,2.858 0 0 1 386.816,167.119 A2.858,2.858 0 0 1 387.978,163.523" stroke="#355c55" stroke-width="1.6" stroke-opacity="0.78" data-verse="74"/><path d="M387.978,163.523 A1.315,1.315 0 0 1 389.965,164.635 A3.975,3.975 0 0 0 395.918,168.026 A4.916,4.916 0 0 0 398.091,162.077 A2.858,2.858 0 0 1 399.467,158.558 A156.339,156.339 0 0 1 404.403,156.122" stroke="#355c55" stroke-width="1.6" stroke-opacity="0.78" data-verse="75"/><path d="M404.403,156.122 A4.218,4.218 0 0 0 404.311,148.451 A156.339,156.339 0 0 1 399.318,146.134 A1.315,1.315 0 0 1 399.153,143.863 A2.858,2.858 0 0 1 402.903,144.334 A2.858,2.858 0 0 1 402.908,148.113 A1.315,1.315 0 0 1 400.675,147.669 A2.858,2.858 0 0 1 402.124,144.179 A2.858,2.858 0 0 1 405.769,145.177 A2.858,2.858 0 0 1 405.239,148.918 A4.916,4.916 0 0 0 404.211,155.167 A3.975,3.975 0 0 0 411.062,155.137 A156.339,156.339 0 0 1 413.917,150.431 A2.858,2.858 0 0 1 417.543,149.366 A4.916,4.916 0 0 0 423.658,147.719" stroke="#355c55" stroke-width="1.6" stroke-opacity="0.78" data-verse="76"/><path d="M423.658,147.719 A156.339,156.339 0 0 1 426.881,143.256 A156.339,156.339 0 0 1 430.258,138.91 A4.916,4.916 0 0 0 430.122,132.578 A156.339,156.339 0 0 1 426.56,128.382 A2.858,2.858 0 0 1 426.696,124.605 A2.858,2.858 0 0 1 430.459,124.264 A156.339,156.339 0 0 1 434.844,127.592 A2.858,2.858 0 0 1 435.526,131.309 A156.339,156.339 0 0 1 432.611,135.978 A156.339,156.339 0 0 1 429.534,140.542 A2.858,2.858 0 0 1 425.861,141.432 A2.858,2.858 0 0 1 424.515,137.901 A156.339,156.339 0 0 1 426.534,132.78" stroke="#355c55" stroke-width="1.6" stroke-opacity="0.78" data-verse="77"/><path d="M426.534,132.78 A4.916,4.916 0 0 0 424.623,126.742 A156.339,156.339 0 0 1 420.025,123.716 A3.975,3.975 0 0 0 413.823,126.627 A156.339,156.339 0 0 1 413.214,132.098 A2.858,2.858 0 0 1 410.373,134.59 A2.858,2.858 0 0 1 407.542,132.086 A4.916,4.916 0 0 0 402.894,127.784 A3.975,3.975 0 0 0 399.145,133.518 A3.975,3.975 0 0 0 405.977,134.017 A2.858,2.858 0 0 1 409.645,133.106 A156.339,156.339 0 0 1 414.485,135.728 A4.916,4.916 0 0 0 420.709,134.558 A4.916,4.916 0 0 0 420.616,128.225 A1.315,1.315 0 0 1 421.358,126.072 A156.339,156.339 0 0 1 426.778,125.113 A2.858,2.858 0 0 1 429.971,127.135 A3.975,3.975 0 0 0 436.612,128.817 A156.339,156.339 0 0 1 440.553,124.975 A2.858,2.858 0 0 1 444.33,124.85 A4.916,4.916 0 0 0 450.663,124.783 A1.315,1.315 0 0 1 452.812,125.534 A156.339,156.339 0 0 1 453.75,130.958 A156.339,156.339 0 0 1 454.497,136.411 A156.339,156.339 0 0 1 455.05,141.888 A2.858,2.858 0 0 1 452.797,144.921 A156.339,156.339 0 0 1 447.394,145.972" stroke="#355c55" stroke-width="1.6" stroke-opacity="0.78" data-verse="78"/><path d="M447.394,145.972 A4.916,4.916 0 0 0 443.33,150.829 A2.858,2.858 0 0 1 440.842,153.673 A156.339,156.339 0 0 1 435.372,154.289 A1.315,1.315 0 0 1 434.05,152.434 A2.858,2.858 0 0 1 437.498,150.888 A1.315,1.315 0 0 1 438.004,153.108 A4.916,4.916 0 0 0 437.231,159.394 A1.315,1.315 0 0 1 436.202,161.425 A1.315,1.315 0 0 1 434.953,159.521 A156.339,156.339 0 0 1 437.511,154.647 A4.916,4.916 0 0 0 436.26,148.439 A1.315,1.315 0 0 1 436.595,146.186 A156.339,156.339 0 0 1 441.747,144.25" stroke="#355c55" stroke-width="1.6" stroke-opacity="0.78" data-verse="79"/><path d="M441.747,144.25 A2.858,2.858 0 0 1 445.256,145.652 A1.315,1.315 0 0 1 444.013,147.56 A1.315,1.315 0 0 1 442.979,145.531 A1.315,1.315 0 0 1 445.253,145.645 A2.858,2.858 0 0 1 444.326,149.309 A2.858,2.858 0 0 1 440.575,148.852 A1.315,1.315 0 0 1 441.289,146.69 A156.339,156.339 0 0 1 446.696,145.659 A2.858,2.858 0 0 1 449.915,147.639 A2.858,2.858 0 0 1 448.356,151.082 A156.339,156.339 0 0 1 443.299,153.256" stroke="#355c55" stroke-width="1.6" stroke-opacity="0.78" data-verse="80"/><path d="M443.299,153.256 A4.916,4.916 0 0 0 440.36,158.866 A156.339,156.339 0 0 1 441.452,164.261 A2.858,2.858 0 0 1 439.508,167.502 A2.858,2.858 0 0 1 436.048,165.982 A2.858,2.858 0 0 1 437.119,162.358 A1.315,1.315 0 0 1 439.133,163.42 A4.916,4.916 0 0 0 443.402,168.098 A156.339,156.339 0 0 1 448.845,168.915 A156.339,156.339 0 0 1 454.256,169.924 A4.916,4.916 0 0 0 459.82,166.899 A156.339,156.339 0 0 1 461.917,161.809 A1.315,1.315 0 0 1 464.178,161.545 A156.339,156.339 0 0 1 467.392,166.014 A2.858,2.858 0 0 1 466.953,169.768 A4.916,4.916 0 0 0 466.076,176.04 A156.339,156.339 0 0 1 468.922,180.751 A2.858,2.858 0 0 1 468.185,184.458 A2.858,2.858 0 0 1 464.415,184.194 A3.975,3.975 0 0 0 457.771,185.865 A2.858,2.858 0 0 1 454.575,187.881 A3.975,3.975 0 0 0 450.205,193.157 A1.315,1.315 0 0 1 448.74,194.9 A3.975,3.975 0 0 0 444.29,200.109 A1.315,1.315 0 0 1 442.798,201.829 A3.975,3.975 0 0 0 438.269,206.969 A4.916,4.916 0 0 0 443.652,210.305 A156.339,156.339 0 0 1 449.112,209.605 A4.916,4.916 0 0 0 453.48,205.02 A4.916,4.916 0 0 0 449.706,199.934" stroke="#355c55" stroke-width="1.6" stroke-opacity="0.78" data-verse="81"/><path d="M449.706,199.934 A156.339,156.339 0 0 1 444.373,198.571 A2.858,2.858 0 0 1 442.3,195.412 A4.916,4.916 0 0 0 438.944,190.041 A4.916,4.916 0 0 0 433.08,192.432 A4.916,4.916 0 0 0 434.437,198.618 A3.975,3.975 0 0 0 440.791,196.055 A4.218,4.218 0 0 0 434.363,191.866 A4.916,4.916 0 0 0 432.452,197.903 A4.916,4.916 0 0 0 438.075,200.816 A1.315,1.315 0 0 1 439.621,202.487 A156.339,156.339 0 0 1 437.904,207.717 A4.916,4.916 0 0 0 440.165,213.633" stroke="#355c55" stroke-width="1.6" stroke-opacity="0.78" data-verse="82"/><path d="M440.165,213.633 A4.916,4.916 0 0 0 446.379,212.414 A2.858,2.858 0 0 1 450.103,211.77 A2.858,2.858 0 0 1 451.211,215.382 A2.858,2.858 0 0 1 447.767,216.938 A1.315,1.315 0 0 1 447.256,214.719 A1.315,1.315 0 0 1 449.434,215.381 A4.218,4.218 0 0 0 456.955,216.898 A4.916,4.916 0 0 0 456.5,210.581" stroke="#355c55" stroke-width="1.6" stroke-opacity="0.78" data-verse="83"/><path d="M456.5,210.581 A156.339,156.339 0 0 1 452.731,206.569 A156.339,156.339 0 0 1 449.106,202.427 A4.916,4.916 0 0 0 442.864,201.357 A4.916,4.916 0 0 0 440.747,207.326 A2.858,2.858 0 0 1 439.404,210.858 A156.339,156.339 0 0 1 434.49,213.339 A3.975,3.975 0 0 0 433.928,220.167 A156.339,156.339 0 0 1 438.369,223.419 A1.315,1.315 0 0 1 438.085,225.679 A2.858,2.858 0 0 1 434.501,224.481 A1.315,1.315 0 0 1 435.633,222.505 A2.858,2.858 0 0 1 438.48,224.99 A156.339,156.339 0 0 1 439.102,230.459 A2.858,2.858 0 0 1 436.887,233.52 A3.975,3.975 0 0 0 434.797,240.045 A4.218,4.218 0 0 0 442.126,237.78 A4.709,4.709 0 0 0 434.652,233.391 A2.858,2.858 0 0 1 430.886,233.074 A4.916,4.916 0 0 0 424.589,232.402 A156.339,156.339 0 0 1 419.972,235.399 A156.339,156.339 0 0 1 415.253,238.232 A156.339,156.339 0 0 1 410.436,240.897 A4.916,4.916 0 0 0 408.068,246.771 A156.339,156.339 0 0 1 409.69,252.031 A2.858,2.858 0 0 1 408.077,255.449 A156.339,156.339 0 0 1 402.986,257.542" stroke="#355c55" stroke-width="1.6" stroke-opacity="0.78" data-verse="84"/><path d="M402.986,257.542 A4.916,4.916 0 0 0 399.959,263.105 A4.916,4.916 0 0 0 404.924,267.036 A4.218,4.218 0 0 0 407.902,259.966 A4.709,4.709 0 0 0 399.736,262.869 A3.975,3.975 0 0 0 405.419,266.694 A2.858,2.858 0 0 1 409.055,267.724 A3.975,3.975 0 0 0 415.9,267.448 A4.916,4.916 0 0 0 414.594,261.252 A4.218,4.218 0 0 0 407.784,264.786 A2.858,2.858 0 0 1 405.431,267.743 A4.916,4.916 0 0 0 401.378,272.609 A1.315,1.315 0 0 1 399.413,273.759 A4.916,4.916 0 0 0 393.186,274.914 A3.975,3.975 0 0 0 395.541,281.348" stroke="#355c55" stroke-width="1.6" stroke-opacity="0.78" data-verse="85"/><path d="M395.541,281.348 A156.339,156.339 0 0 1 400.937,282.436 A156.339,156.339 0 0 1 406.291,283.713 A2.858,2.858 0 0 1 408.415,286.838 A2.858,2.858 0 0 1 405.583,289.339 A1.315,1.315 0 0 1 404.44,287.37 A156.339,156.339 0 0 1 407.26,282.643 A3.975,3.975 0 0 0 404.079,276.576 A2.858,2.858 0 0 1 401.37,273.941 A2.858,2.858 0 0 1 403.642,270.921 A4.916,4.916 0 0 0 407.562,265.947 A4.916,4.916 0 0 0 403.329,261.237" stroke="#355c55" stroke-width="1.6" stroke-opacity="0.78" data-verse="86"/><path d="M403.329,261.237 A4.916,4.916 0 0 0 397.966,264.606 A4.916,4.916 0 0 0 400.372,270.464 A3.975,3.975 0 0 0 406.186,266.841 A4.916,4.916 0 0 0 401.988,262.1 A1.315,1.315 0 0 1 401.147,259.984 A156.339,156.339 0 0 1 404.632,255.723 A1.315,1.315 0 0 1 406.873,256.127 A156.339,156.339 0 0 1 408.649,261.337 A4.218,4.218 0 0 0 416.268,262.239 A1.315,1.315 0 0 1 418.544,262.289 A1.315,1.315 0 0 1 417.366,264.238 A156.339,156.339 0 0 1 411.866,264.037 A1.315,1.315 0 0 1 410.833,262.007 A3.975,3.975 0 0 0 407.775,255.877 A1.315,1.315 0 0 1 406.774,253.832 A156.339,156.339 0 0 1 409.921,249.316 A2.858,2.858 0 0 1 413.606,248.482 A156.339,156.339 0 0 1 418.39,251.204 A3.975,3.975 0 0 0 424.391,247.898 A3.975,3.975 0 0 0 418.59,244.254" stroke="#355c55" stroke-width="1.6" stroke-opacity="0.78" data-verse="87"/><path d="M418.59,244.254 A2.858,2.858 0 0 1 414.924,243.338 A156.339,156.339 0 0 1 411.878,238.754 A3.975,3.975 0 0 0 405.031,239.004 A1.315,1.315 0 0 1 402.755,239.07 A2.858,2.858 0 0 1 403.389,235.344 A2.858,2.858 0 0 1 407.165,235.504 A156.339,156.339 0 0 1 411.071,239.383 A1.315,1.315 0 0 1 410.452,241.574 A2.858,2.858 0 0 1 407.087,239.854 A3.975,3.975 0 0 0 400.32,238.789 A2.858,2.858 0 0 1 396.589,239.392 A156.339,156.339 0 0 1 391.984,236.377 A156.339,156.339 0 0 1 387.487,233.203 A2.858,2.858 0 0 1 386.676,229.512 A156.339,156.339 0 0 1 389.428,224.744 A1.315,1.315 0 0 1 391.705,224.782 A4.218,4.218 0 0 0 399.353,224.174 A2.858,2.858 0 0 1 402.67,222.365 A1.315,1.315 0 0 1 403.347,224.54 A3.975,3.975 0 0 0 405.332,231.097 A2.858,2.858 0 0 1 407.497,234.193 A1.315,1.315 0 0 1 405.412,235.107 A156.339,156.339 0 0 1 401.033,231.771 A2.858,2.858 0 0 1 400.356,228.053 A3.975,3.975 0 0 0 397.094,222.029 A1.315,1.315 0 0 1 396.025,220.019 A3.975,3.975 0 0 0 392.855,213.945 A2.858,2.858 0 0 1 390.151,211.305 A3.975,3.975 0 0 0 384.003,208.282 A2.858,2.858 0 0 1 380.261,207.753 A4.916,4.916 0 0 0 374.012,206.725 A156.339,156.339 0 0 1 369.233,209.456 A4.916,4.916 0 0 0 366.946,215.361 A4.916,4.916 0 0 0 372.376,218.621 A156.339,156.339 0 0 1 377.825,217.845" stroke="#355c55" stroke-width="1.6" stroke-opacity="0.78" data-verse="88"/><path d="M377.825,217.845 A4.916,4.916 0 0 0 382.129,213.199 A1.315,1.315 0 0 1 384.151,212.153 A4.218,4.218 0 0 0 390.597,207.993 A4.916,4.916 0 0 0 385.865,203.785 A1.315,1.315 0 0 1 384.778,201.784 A3.975,3.975 0 0 0 381.553,195.74 A2.858,2.858 0 0 1 378.826,193.124 A1.315,1.315 0 0 1 380.694,191.822 A156.339,156.339 0 0 1 385.638,194.241 A2.858,2.858 0 0 1 387.026,197.755 A2.858,2.858 0 0 1 383.714,199.576 A1.315,1.315 0 0 1 383.031,197.404 A2.858,2.858 0 0 1 386.788,196.998 A2.858,2.858 0 0 1 387.664,200.674 A1.315,1.315 0 0 1 385.388,200.757 A2.858,2.858 0 0 1 385.994,197.027 A2.858,2.858 0 0 1 389.771,197.158 A2.858,2.858 0 0 1 390.117,200.921 A2.858,2.858 0 0 1 386.428,201.739 A2.858,2.858 0 0 1 385.151,198.183 A156.339,156.339 0 0 1 387.27,193.102 A4.916,4.916 0 0 0 385.477,187.029" stroke="#355c55" stroke-width="1.6" stroke-opacity="0.78" data-verse="89"/><path d="M385.477,187.029 A5.267,5.267 0 0 0 377.408,192.453 A156.339,156.339 0 0 1 378.39,197.869 A1.315,1.315 0 0 1 376.629,199.312 A4.916,4.916 0 0 0 370.659,201.424 A156.339,156.339 0 0 1 367.788,206.121 A1.315,1.315 0 0 1 365.513,206.026 A2.858,2.858 0 0 1 366.408,202.355 A156.339,156.339 0 0 1 370.976,199.284 A156.339,156.339 0 0 1 375.649,196.375" stroke="#355c55" stroke-width="1.6" stroke-opacity="0.78" data-verse="90"/><path d="M375.649,196.375 A4.916,4.916 0 0 0 377.713,190.388 A4.916,4.916 0 0 0 372.165,187.334 A1.315,1.315 0 0 1 370.662,185.624 A156.339,156.339 0 0 1 372.511,180.44 A4.916,4.916 0 0 0 370.401,174.469 A2.858,2.858 0 0 1 369.222,170.878 A156.339,156.339 0 0 1 371.479,165.858 A156.339,156.339 0 0 1 373.912,160.92 A4.916,4.916 0 0 0 372.502,154.746 A156.339,156.339 0 0 1 368.168,151.353 A4.916,4.916 0 0 0 361.836,151.467 A4.916,4.916 0 0 0 360.869,157.726 A156.339,156.339 0 0 1 363.647,162.478 A3.975,3.975 0 0 0 370.496,162.621 A2.858,2.858 0 0 1 374.112,161.521 A2.858,2.858 0 0 1 375.659,164.969 A4.916,4.916 0 0 0 378.122,170.803 A4.916,4.916 0 0 0 384.291,169.37" stroke="#355c55" stroke-width="1.6" stroke-opacity="0.78" data-verse="91"/><path d="M384.291,169.37 A2.858,2.858 0 0 1 387.99,168.597 A156.339,156.339 0 0 1 392.729,171.398 A4.916,4.916 0 0 0 398.992,170.462 A2.858,2.858 0 0 1 402.741,169.988 A4.916,4.916 0 0 0 409.04,169.333 A1.315,1.315 0 0 1 411.25,169.881 A156.339,156.339 0 0 1 412.688,175.194 A5.267,5.267 0 0 0 422.303,176.631 A3.975,3.975 0 0 0 419.047,170.604 A4.916,4.916 0 0 0 414.055,174.5 A1.315,1.315 0 0 1 411.891,175.208 A2.858,2.858 0 0 1 411.443,171.456 A2.858,2.858 0 0 1 415.109,170.539 A3.975,3.975 0 0 0 420.908,166.89 A156.339,156.339 0 0 1 420.843,161.386" stroke="#355c55" stroke-width="1.6" stroke-opacity="0.78" data-verse="92"/><path d="M420.843,161.386 A4.916,4.916 0 0 0 416.793,156.518 A3.975,3.975 0 0 0 412.33,161.716 A2.858,2.858 0 0 1 410.883,165.207 A4.218,4.218 0 0 0 411.089,172.876 A2.858,2.858 0 0 1 412.721,176.284 A2.858,2.858 0 0 1 409.546,178.333 A2.858,2.858 0 0 1 407.113,175.442 A3.975,3.975 0 0 0 401.29,171.832 A1.315,1.315 0 0 1 399.364,170.618 A4.916,4.916 0 0 0 395.471,165.622 A156.339,156.339 0 0 1 390.108,164.384 A4.916,4.916 0 0 0 384.42,167.17 A2.858,2.858 0 0 1 380.99,168.756 A1.315,1.315 0 0 1 380.459,166.541 A2.858,2.858 0 0 1 384.235,166.398 A4.709,4.709 0 0 0 391.904,162.358 A2.858,2.858 0 0 1 394.158,159.325 A156.339,156.339 0 0 1 399.561,158.275 A156.339,156.339 0 0 1 404.998,157.416" stroke="#355c55" stroke-width="1.6" stroke-opacity="0.78" data-verse="93"/><path d="M404.998,157.416 A156.339,156.339 0 0 1 410.462,156.748 A2.858,2.858 0 0 1 413.541,158.938 A4.916,4.916 0 0 0 418.619,162.723 A4.916,4.916 0 0 0 423.214,158.365 A4.916,4.916 0 0 0 419.702,153.095 A3.975,3.975 0 0 0 414.714,157.791 A3.975,3.975 0 0 0 421.24,159.876 A2.858,2.858 0 0 1 425.019,159.85 A4.916,4.916 0 0 0 431.351,159.947 A2.858,2.858 0 0 1 435.127,160.089 A4.916,4.916 0 0 0 441.449,160.47 A4.916,4.916 0 0 0 442.9,154.305 A4.916,4.916 0 0 0 437.074,151.824 A3.975,3.975 0 0 0 435.478,158.487 A4.218,4.218 0 0 0 442.618,155.679 A1.315,1.315 0 0 1 444.648,154.647 A4.916,4.916 0 0 0 450.932,153.863 A4.916,4.916 0 0 0 451.23,147.537" stroke="#355c55" stroke-width="1.6" stroke-opacity="0.78" data-verse="94"/><path d="M451.23,147.537 A2.858,2.858 0 0 1 451.493,143.767 A1.315,1.315 0 0 1 453.689,144.368 A4.916,4.916 0 0 0 458.867,148.014 A156.339,156.339 0 0 1 464.359,147.636 A2.858,2.858 0 0 1 467.318,149.986 A156.339,156.339 0 0 1 468.195,155.42 A4.916,4.916 0 0 0 472.92,159.637 A2.858,2.858 0 0 1 475.682,162.215 A156.339,156.339 0 0 1 476.122,167.702 A156.339,156.339 0 0 1 476.369,173.201" stroke="#355c55" stroke-width="1.6" stroke-opacity="0.78" data-verse="95"/><path d="M476.369,173.201 A156.339,156.339 0 0 1 476.422,178.705 A3.975,3.975 0 0 0 482.297,182.229 A156.339,156.339 0 0 1 487.177,179.685 A3.975,3.975 0 0 0 487.651,172.85 A4.916,4.916 0 0 0 481.349,173.471 A156.339,156.339 0 0 1 477.438,177.344" stroke="#355c55" stroke-width="1.6" stroke-opacity="0.78" data-verse="96"/><path d="M477.438,177.344 A2.858,2.858 0 0 1 473.662,177.498 A4.916,4.916 0 0 0 467.33,177.614 A3.975,3.975 0 0 0 468.595,184.347 A4.218,4.218 0 0 0 473.965,178.867 A2.858,2.858 0 0 1 475.28,175.325 A4.916,4.916 0 0 0 477.617,169.438 A2.858,2.858 0 0 1 479.089,165.958 A2.858,2.858 0 0 1 482.727,166.98 A4.916,4.916 0 0 0 488.785,168.828 A4.916,4.916 0 0 0 491.638,163.175" stroke="#355c55" stroke-width="1.6" stroke-opacity="0.78" data-verse="97"/><path d="M491.638,163.175 A156.339,156.339 0 0 1 490.465,157.797 A156.339,156.339 0 0 1 489.482,152.381 A2.858,2.858 0 0 1 491.49,149.179 A3.975,3.975 0 0 0 493.144,142.531 A4.218,4.218 0 0 0 485.98,145.276 A4.916,4.916 0 0 0 489.746,150.367 A156.339,156.339 0 0 1 495.076,151.739 A4.916,4.916 0 0 0 500.832,149.096 A4.218,4.218 0 0 0 495.881,143.235" stroke="#355c55" stroke-width="1.6" stroke-opacity="0.78" data-verse="98"/><path d="M495.881,143.235 A4.218,4.218 0 0 0 494.688,150.814 A1.315,1.315 0 0 1 494.55,153.087 A2.858,2.858 0 0 1 490.896,152.123 A156.339,156.339 0 0 1 487.912,147.497 A156.339,156.339 0 0 1 485.092,142.77 A3.975,3.975 0 0 0 478.242,142.687 A2.858,2.858 0 0 1 474.636,143.82 A4.916,4.916 0 0 0 468.553,145.582 A4.218,4.218 0 0 0 472.582,152.11" stroke="#355c55" stroke-width="1.6" stroke-opacity="0.78" data-verse="99"/><path d="M472.582,152.11 A2.858,2.858 0 0 1 475.705,154.238 A1.315,1.315 0 0 1 474.079,155.832 A4.916,4.916 0 0 0 468.319,158.465 A4.916,4.916 0 0 0 469.932,164.589 A156.339,156.339 0 0 1 474.376,167.836 A156.339,156.339 0 0 1 478.704,171.239 A156.339,156.339 0 0 1 482.908,174.791 A156.339,156.339 0 0 1 486.985,178.489 A4.916,4.916 0 0 0 493.309,178.834" stroke="#355c55" stroke-width="1.6" stroke-opacity="0.78" data-verse="100"/><path d="M493.309,178.834 A2.858,2.858 0 0 1 497.077,179.124 A3.975,3.975 0 0 0 503.732,177.5 A156.339,156.339 0 0 1 505.413,172.258 A4.916,4.916 0 0 0 503.113,166.358 A3.975,3.975 0 0 0 497.234,169.876 A2.858,2.858 0 0 1 494.756,172.729 A156.339,156.339 0 0 1 489.289,173.365 A156.339,156.339 0 0 1 483.802,173.809 A4.218,4.218 0 0 0 481.058,180.973 A156.339,156.339 0 0 1 484.845,184.968 A4.916,4.916 0 0 0 491.124,185.789 A1.315,1.315 0 0 1 493.148,186.833 A2.858,2.858 0 0 1 490.789,189.786 A156.339,156.339 0 0 1 485.353,190.647 A1.315,1.315 0 0 1 483.949,188.854 A2.858,2.858 0 0 1 487.324,187.154 A2.858,2.858 0 0 1 489.436,190.288 A2.858,2.858 0 0 1 486.594,192.778 A2.858,2.858 0 0 1 483.765,190.273 A2.858,2.858 0 0 1 485.894,187.15 A2.858,2.858 0 0 1 489.26,188.868 A3.975,3.975 0 0 0 496.028,189.93 A2.858,2.858 0 0 1 499.758,189.325 A4.916,4.916 0 0 0 506.03,188.451" stroke="#355c55" stroke-width="1.6" stroke-opacity="0.78" data-verse="101"/><path d="M506.03,188.451 A4.916,4.916 0 0 0 506.238,182.122 A2.858,2.858 0 0 1 506.447,178.349 A2.858,2.858 0 0 1 510.216,178.08 A2.858,2.858 0 0 1 510.958,181.785 A2.858,2.858 0 0 1 507.376,182.989 A4.916,4.916 0 0 0 501.33,184.871 A2.858,2.858 0 0 1 497.697,185.913 A156.339,156.339 0 0 1 492.766,183.467 A1.315,1.315 0 0 1 492.66,181.193 A156.339,156.339 0 0 1 497.342,178.299 A156.339,156.339 0 0 1 502.123,175.571 A156.339,156.339 0 0 1 506.997,173.013" stroke="#355c55" stroke-width="1.6" stroke-opacity="0.78" data-verse="102"/><path d="M506.997,173.013 A1.315,1.315 0 0 1 508.901,174.262 A1.315,1.315 0 0 1 506.87,175.291 A2.858,2.858 0 0 1 505.858,171.65 A156.339,156.339 0 0 1 508.344,166.739 A2.858,2.858 0 0 1 511.877,165.399 A2.858,2.858 0 0 1 513.652,168.736 A156.339,156.339 0 0 1 512.285,174.068 A3.975,3.975 0 0 0 517.054,178.986 A2.858,2.858 0 0 1 520.398,180.746 A2.858,2.858 0 0 1 519.074,184.285 A4.916,4.916 0 0 0 516.723,190.166 A1.315,1.315 0 0 1 515.21,191.867 A4.916,4.916 0 0 0 509.646,194.891 A156.339,156.339 0 0 1 507.548,199.98 A2.858,2.858 0 0 1 504.129,201.59 A4.916,4.916 0 0 0 498.341,204.158" stroke="#355c55" stroke-width="1.6" stroke-opacity="0.78" data-verse="103"/><path d="M498.341,204.158 A2.858,2.858 0 0 1 494.853,205.614 A4.916,4.916 0 0 0 488.955,207.921 A2.858,2.858 0 0 1 485.406,209.219 A156.339,156.339 0 0 1 480.314,207.13 A4.916,4.916 0 0 0 474.25,208.958" stroke="#355c55" stroke-width="1.6" stroke-opacity="0.78" data-verse="104"/><path d="M474.25,208.958 A2.858,2.858 0 0 1 470.609,209.968 A2.858,2.858 0 0 1 469.148,206.483 A1.315,1.315 0 0 1 471.38,206.032 A156.339,156.339 0 0 1 474.953,210.219 A2.858,2.858 0 0 1 474.827,213.996 A2.858,2.858 0 0 1 471.065,214.348 A4.916,4.916 0 0 0 464.748,214.796 A4.916,4.916 0 0 0 464.113,221.097 A2.858,2.858 0 0 1 463.65,224.847 A4.916,4.916 0 0 0 462.733,231.113" stroke="#355c55" stroke-width="1.6" stroke-opacity="0.78" data-verse="105"/><path d="M462.733,231.113 A156.339,156.339 0 0 1 465.549,235.843 A4.916,4.916 0 0 0 471.494,238.024 A156.339,156.339 0 0 1 476.701,236.238 A2.858,2.858 0 0 1 480.168,237.742 A4.916,4.916 0 0 0 485.92,240.391 A2.858,2.858 0 0 1 489.316,242.048 A156.339,156.339 0 0 1 491.342,247.166 A156.339,156.339 0 0 1 493.187,252.352 A4.916,4.916 0 0 0 498.597,255.645" stroke="#355c55" stroke-width="1.6" stroke-opacity="0.78" data-verse="106"/><path d="M498.597,255.645 A4.916,4.916 0 0 0 502.763,250.876 A156.339,156.339 0 0 1 502.961,245.375 A1.315,1.315 0 0 1 504.99,244.341 A156.339,156.339 0 0 1 509.556,247.416 A3.975,3.975 0 0 0 515.788,244.571 A3.975,3.975 0 0 0 510.277,240.5 A2.858,2.858 0 0 1 506.69,239.312 A1.315,1.315 0 0 1 507.816,237.333 A2.858,2.858 0 0 1 510.67,239.81 A2.858,2.858 0 0 1 508.572,242.953 A1.315,1.315 0 0 1 506.963,241.342 A2.858,2.858 0 0 1 510.109,239.248 A156.339,156.339 0 0 1 515.55,240.085 A2.858,2.858 0 0 1 517.921,243.027 A156.339,156.339 0 0 1 517.584,248.521" stroke="#355c55" stroke-width="1.6" stroke-opacity="0.78" data-verse="107"/><path d="M517.584,248.521 A156.339,156.339 0 0 1 517.053,254 A4.916,4.916 0 0 0 520.554,259.278 A4.916,4.916 0 0 0 526.35,256.728 A2.858,2.858 0 0 1 529.843,255.284 A4.916,4.916 0 0 0 535.748,252.996 A4.916,4.916 0 0 0 534.5,246.787 A156.339,156.339 0 0 1 530.255,243.283 A1.315,1.315 0 0 1 530.67,241.044 A156.339,156.339 0 0 1 535.888,239.292 A3.975,3.975 0 0 0 537.424,232.615 A3.975,3.975 0 0 0 530.84,234.51 A2.858,2.858 0 0 1 527.714,236.633 A1.315,1.315 0 0 1 526.829,234.535 A2.858,2.858 0 0 1 530.531,233.779 A2.858,2.858 0 0 1 531.749,237.356 A156.339,156.339 0 0 1 529.545,242.401 A2.858,2.858 0 0 1 526.094,243.939 A4.916,4.916 0 0 0 520.253,246.386" stroke="#355c55" stroke-width="1.6" stroke-opacity="0.78" data-verse="108"/><path d="M520.253,246.386 A2.858,2.858 0 0 1 516.736,247.768 A1.315,1.315 0 0 1 516.335,245.527 A1.315,1.315 0 0 1 518.478,246.296 A156.339,156.339 0 0 1 519.368,251.728 A2.858,2.858 0 0 1 517.305,254.894 A156.339,156.339 0 0 1 511.977,256.275 A4.916,4.916 0 0 0 508.22,261.374 A1.315,1.315 0 0 1 506.327,262.64 A3.975,3.975 0 0 0 500.603,266.404 A2.858,2.858 0 0 1 498.249,269.36 A2.858,2.858 0 0 1 495.02,267.397 A156.339,156.339 0 0 1 493.473,262.114 A4.218,4.218 0 0 0 485.901,260.879 A1.315,1.315 0 0 1 483.629,260.73 A2.858,2.858 0 0 1 484.613,257.081 A156.339,156.339 0 0 1 489.254,254.121 A4.218,4.218 0 0 0 488.326,246.506 A3.975,3.975 0 0 0 483.225,251.079 A2.858,2.858 0 0 1 481.336,254.352 A4.916,4.916 0 0 0 478.048,259.765" stroke="#355c55" stroke-width="1.6" stroke-opacity="0.78" data-verse="109"/><path d="M478.048,259.765 A156.339,156.339 0 0 1 478.796,265.218 A3.975,3.975 0 0 0 485.07,267.972 A156.339,156.339 0 0 1 489.59,264.83 A4.916,4.916 0 0 0 491.348,258.746 A3.975,3.975 0 0 0 484.541,257.969 A2.858,2.858 0 0 1 480.839,258.729 A4.916,4.916 0 0 0 474.609,259.864 A156.339,156.339 0 0 1 471.028,264.044 A156.339,156.339 0 0 1 467.302,268.096 A1.315,1.315 0 0 1 465.088,267.562 A2.858,2.858 0 0 1 466.677,264.134 A156.339,156.339 0 0 1 471.754,262.006 A4.916,4.916 0 0 0 474.744,256.423 A4.916,4.916 0 0 0 469.752,252.526 A2.858,2.858 0 0 1 466.827,250.134 A1.315,1.315 0 0 1 468.586,248.688 A2.858,2.858 0 0 1 470.366,252.022 A156.339,156.339 0 0 1 469.007,257.356" stroke="#355c55" stroke-width="1.6" stroke-opacity="0.78" data-verse="110"/><path d="M469.007,257.356 A2.858,2.858 0 0 1 465.85,259.432 A2.858,2.858 0 0 1 463.392,256.561 A2.858,2.858 0 0 1 465.929,253.761 A4.709,4.709 0 0 0 468.403,245.454 A2.858,2.858 0 0 1 467.81,241.722 A3.975,3.975 0 0 0 464.683,235.626 A2.858,2.858 0 0 1 461.998,232.967 A2.858,2.858 0 0 1 464.297,229.968 A3.975,3.975 0 0 0 466.567,223.504 A156.339,156.339 0 0 1 463.093,219.235" stroke="#355c55" stroke-width="1.6" stroke-opacity="0.78" data-verse="111"/><path d="M463.093,219.235 A3.975,3.975 0 0 0 456.303,220.146 A2.858,2.858 0 0 1 452.899,221.788 A156.339,156.339 0 0 1 447.625,220.214 A2.858,2.858 0 0 1 445.679,216.974 A2.858,2.858 0 0 1 448.647,214.635 A2.858,2.858 0 0 1 451.342,217.285 A2.858,2.858 0 0 1 449.053,220.292 A4.916,4.916 0 0 0 445.106,225.244 A2.858,2.858 0 0 1 442.685,228.146 A2.858,2.858 0 0 1 439.502,226.111 A3.975,3.975 0 0 0 432.868,224.4 A156.339,156.339 0 0 1 428.91,228.225" stroke="#355c55" stroke-width="1.6" stroke-opacity="0.78" data-verse="112"/><path d="M428.91,228.225 A2.858,2.858 0 0 1 425.133,228.334 A3.975,3.975 0 0 0 418.686,230.651 A2.858,2.858 0 0 1 415.704,232.972 A4.916,4.916 0 0 0 410.62,236.749 A4.916,4.916 0 0 0 413.476,242.402 A3.975,3.975 0 0 0 418.99,238.336 A4.916,4.916 0 0 0 414.435,233.937 A2.858,2.858 0 0 1 411.776,231.252 A2.858,2.858 0 0 1 414.105,228.275 A1.315,1.315 0 0 1 415.588,230.003 A2.858,2.858 0 0 1 412.293,231.854 A156.339,156.339 0 0 1 406.931,230.61 A1.315,1.315 0 0 1 406.304,228.421 A3.975,3.975 0 0 0 404.467,221.821 A1.315,1.315 0 0 1 403.874,219.622 A1.315,1.315 0 0 1 406.075,220.203 A3.975,3.975 0 0 0 412.686,222" stroke="#355c55" stroke-width="1.6" stroke-opacity="0.78" data-verse="113"/><path d="M412.686,222 A156.339,156.339 0 0 1 416.693,218.226 A3.975,3.975 0 0 0 415.294,211.519 A156.339,156.339 0 0 1 410.113,209.662 A3.975,3.975 0 0 0 404.772,213.952 A4.916,4.916 0 0 0 409.505,218.159 A1.315,1.315 0 0 1 410.592,220.16 A156.339,156.339 0 0 1 407.64,224.806 A1.315,1.315 0 0 1 405.367,224.672 A3.975,3.975 0 0 0 398.532,224.215 A4.916,4.916 0 0 0 399.169,230.516 A3.975,3.975 0 0 0 405.775,228.699 A2.858,2.858 0 0 1 408.926,226.613 A156.339,156.339 0 0 1 414.365,227.463 A4.218,4.218 0 0 0 418.705,221.138" stroke="#355c55" stroke-width="1.6" stroke-opacity="0.78" data-verse="114"/><path d="M418.705,221.138 A4.916,4.916 0 0 0 412.715,219.083 A2.858,2.858 0 0 1 409.169,217.777 A156.339,156.339 0 0 1 406.636,212.89 A1.315,1.315 0 0 1 407.895,210.992 A156.339,156.339 0 0 1 413.382,211.424 A2.858,2.858 0 0 1 415.965,214.183 A4.709,4.709 0 0 0 424.041,217.329" stroke="#355c55" stroke-width="1.6" stroke-opacity="0.78" data-verse="115"/><path d="M424.041,217.329 A4.916,4.916 0 0 0 424.506,211.013 A2.858,2.858 0 0 1 424.867,207.251 A1.315,1.315 0 0 1 427.047,207.91 A3.975,3.975 0 0 0 433.59,209.941 A1.315,1.315 0 0 1 435.759,210.632 A4.916,4.916 0 0 0 440.781,214.49 A4.916,4.916 0 0 0 445.439,210.199 A156.339,156.339 0 0 1 446.229,204.751 A4.916,4.916 0 0 0 442.983,199.313 A1.315,1.315 0 0 1 442.549,197.078 A3.975,3.975 0 0 0 441.295,190.343 A1.315,1.315 0 0 1 440.895,188.101 A4.916,4.916 0 0 0 441.966,181.859 A2.858,2.858 0 0 1 442.689,178.15 A4.916,4.916 0 0 0 444.038,171.963 A2.858,2.858 0 0 1 444.925,168.289 A3.975,3.975 0 0 0 444.383,161.46 A156.339,156.339 0 0 1 439.477,158.964 A4.916,4.916 0 0 0 433.285,160.294 A4.916,4.916 0 0 0 433.541,166.622 A4.916,4.916 0 0 0 439.819,167.448 A1.315,1.315 0 0 1 441.842,168.494 A3.975,3.975 0 0 0 447.903,171.688 A2.858,2.858 0 0 1 451.628,172.322 A3.975,3.975 0 0 0 458.405,171.313 A3.975,3.975 0 0 0 454.236,165.876" stroke="#355c55" stroke-width="1.6" stroke-opacity="0.78" data-verse="116"/><path d="M454.236,165.876 A2.858,2.858 0 0 1 451.118,163.741 A2.858,2.858 0 0 1 452.843,160.378 A2.858,2.858 0 0 1 456.396,161.665 A4.916,4.916 0 0 0 462.301,163.955 A4.916,4.916 0 0 0 465.563,158.526 A156.339,156.339 0 0 1 464.789,153.077 A3.975,3.975 0 0 0 458.502,150.353 A3.975,3.975 0 0 0 459.169,157.172" stroke="#355c55" stroke-width="1.6" stroke-opacity="0.78" data-verse="117"/><path d="M459.169,157.172 A2.858,2.858 0 0 1 460.689,160.632 A2.858,2.858 0 0 1 457.448,162.575 A2.858,2.858 0 0 1 455.111,159.606 A156.339,156.339 0 0 1 455.512,154.116 A4.916,4.916 0 0 0 451.889,148.922 A2.858,2.858 0 0 1 449.797,145.775 A156.339,156.339 0 0 1 450.636,140.335 A2.858,2.858 0 0 1 453.579,137.965 A3.975,3.975 0 0 0 457.313,132.221 A4.218,4.218 0 0 0 449.645,132.476" stroke="#355c55" stroke-width="1.6" stroke-opacity="0.78" data-verse="118"/><path d="M449.645,132.476 A2.858,2.858 0 0 1 446.248,134.13 A1.315,1.315 0 0 1 445.672,131.927 A2.858,2.858 0 0 1 449.445,131.708 A2.858,2.858 0 0 1 450.138,135.423 A4.916,4.916 0 0 0 451.16,141.673 A4.916,4.916 0 0 0 457.492,141.731 A156.339,156.339 0 0 1 461.796,138.3 A156.339,156.339 0 0 1 466.219,135.022 A2.858,2.858 0 0 1 469.978,135.407 A3.975,3.975 0 0 0 476.672,133.949 A156.339,156.339 0 0 1 478.484,128.751 A1.315,1.315 0 0 1 480.728,128.363 A4.916,4.916 0 0 0 486.964,129.464 A3.975,3.975 0 0 0 487.014,122.614 A3.975,3.975 0 0 0 480.999,125.892" stroke="#355c55" stroke-width="1.6" stroke-opacity="0.78" data-verse="119"/><path d="M480.999,125.892 A156.339,156.339 0 0 1 480.718,131.389 A2.858,2.858 0 0 1 478.032,134.047 A156.339,156.339 0 0 1 472.532,134.269 A1.315,1.315 0 0 1 471.347,132.324 A4.916,4.916 0 0 0 470.083,126.119 A4.916,4.916 0 0 0 463.753,126.307 A1.315,1.315 0 0 1 461.589,125.598 A156.339,156.339 0 0 1 460.548,120.193 A1.315,1.315 0 0 1 462.293,118.73 A4.916,4.916 0 0 0 468.24,116.553 A4.916,4.916 0 0 0 467.108,110.322 A1.315,1.315 0 0 1 467.485,108.076 A2.858,2.858 0 0 1 471.017,109.422 A156.339,156.339 0 0 1 473.494,114.338 A3.975,3.975 0 0 0 480.321,114.906 A4.916,4.916 0 0 0 479.787,108.596 A4.709,4.709 0 0 0 471.746,111.831" stroke="#355c55" stroke-width="1.6" stroke-opacity="0.78" data-verse="120"/><path d="M471.746,111.831 A2.858,2.858 0 0 1 469.194,114.618 A4.916,4.916 0 0 0 464.814,119.192 A1.315,1.315 0 0 1 462.774,120.204 A3.975,3.975 0 0 0 456.614,123.203 A3.975,3.975 0 0 0 462.223,127.136 A2.858,2.858 0 0 1 465.839,128.235 A4.218,4.218 0 0 0 473.451,127.282 A2.858,2.858 0 0 1 476.684,125.324 A4.916,4.916 0 0 0 482.173,122.166" stroke="#355c55" stroke-width="1.6" stroke-opacity="0.78" data-verse="121"/><path d="M482.173,122.166 A4.709,4.709 0 0 0 475.835,116.254 A2.858,2.858 0 0 1 472.229,115.123 A4.218,4.218 0 0 0 464.609,116.012" stroke="#355c55" stroke-width="1.6" stroke-opacity="0.78" data-verse="122"/><path d="M464.609,116.012 A156.339,156.339 0 0 1 462.823,121.218 A2.858,2.858 0 0 1 459.508,123.032 A3.975,3.975 0 0 0 454.819,128.027 A3.975,3.975 0 0 0 461.461,129.706 A4.916,4.916 0 0 0 461.968,123.393 A156.339,156.339 0 0 1 458.85,118.857 A4.916,4.916 0 0 0 452.775,117.067 A2.858,2.858 0 0 1 449.175,115.919 A3.975,3.975 0 0 0 442.324,115.97 A4.916,4.916 0 0 0 443.427,122.206 A156.339,156.339 0 0 1 447.588,125.809 A2.858,2.858 0 0 1 448.031,129.562 A2.858,2.858 0 0 1 444.364,130.475 A156.339,156.339 0 0 1 439.523,127.856 A2.858,2.858 0 0 1 438.28,124.287 A3.975,3.975 0 0 0 434.126,118.839" stroke="#355c55" stroke-width="1.6" stroke-opacity="0.78" data-verse="123"/></g></svg>