<svg xmlns="http://www.w3.org/2000/svg" width="1200" height="960" viewBox="0 0 600 480" role="img" aria-label="Al-Buruj — Word Current"><title>Al-Buruj — Word Current</title><desc>Word Current generated from all 109 written words in surah 85.</desc><metadata>{&quot;surah&quot;:85,&quot;name&quot;:&quot;Al-Buruj&quot;,&quot;method&quot;:&quot;Word Current&quot;,&quot;words&quot;:109,&quot;letters&quot;:463,&quot;selectedVerse&quot;:null,&quot;mapping&quot;:&quot;s=10*length; delta=(3*pi/4)*tanh((length-globalMean)/globalSD); exact circular arcs in word order from (0,0), heading 0; zero SD gives straight lines&quot;,&quot;source&quot;:&quot;https://api.quran.com/api/v4/quran/verses/uthmani&quot;,&quot;counting&quot;:&quot;Unicode whitespace words; Unicode L letters except U+0640/U+06E5/U+06E6; no normalization&quot;}</metadata><rect width="600" height="480" fill="#f8f5ec"/><g fill="none" stroke-linecap="round" stroke-linejoin="round"><path d="M323.408,280.792 A30.43,30.43 0 0 0 348.012,232.454 A18.916,18.916 0 0 1 351.365,206.652 A30.794,30.794 0 0 0 349.185,157.267" stroke="#355c55" stroke-width="1.6" stroke-opacity="0.78" data-verse="1"/><path d="M349.185,157.267 A30.794,30.794 0 0 0 302.528,173.599 A30.43,30.43 0 0 0 341.346,211.481" stroke="#355c55" stroke-width="1.6" stroke-opacity="0.78" data-verse="2"/><path d="M341.346,211.481 A47.102,47.102 0 0 0 372.1,177.554 A30.794,30.794 0 0 0 340.144,139.839" stroke="#355c55" stroke-width="1.6" stroke-opacity="0.78" data-verse="3"/><path d="M340.144,139.839 A18.916,18.916 0 0 1 320.153,123.186 A107.789,107.789 0 0 1 322.42,85.199 A30.43,30.43 0 0 0 281.211,49.932" stroke="#355c55" stroke-width="1.6" stroke-opacity="0.78" data-verse="4"/><path d="M281.211,49.932 A47.102,47.102 0 0 0 252.737,85.794 A18.916,18.916 0 0 1 232.007,101.518 A30.794,30.794 0 0 0 198.365,137.738" stroke="#355c55" stroke-width="1.6" stroke-opacity="0.78" data-verse="5"/><path d="M198.365,137.738 A9.221,9.221 0 0 1 186.395,148.17 A9.221,9.221 0 0 1 183.033,132.652 A47.102,47.102 0 0 0 197.268,89.13 A107.789,107.789 0 0 1 196.734,51.079" stroke="#355c55" stroke-width="1.6" stroke-opacity="0.78" data-verse="6"/><path d="M196.734,51.079 A18.916,18.916 0 0 1 217.463,35.354 A18.916,18.916 0 0 1 234.285,55.203 A9.221,9.221 0 0 1 220.189,62.512 A30.794,30.794 0 0 0 174.153,80.521 A36.747,36.747 0 0 0 227.394,122.343 A107.789,107.789 0 0 1 263.421,110.088" stroke="#355c55" stroke-width="1.6" stroke-opacity="0.78" data-verse="7"/><path d="M263.421,110.088 A18.916,18.916 0 0 1 284.778,124.951 A47.102,47.102 0 0 0 314.697,159.616 A107.789,107.789 0 0 1 347.557,178.808 A18.916,18.916 0 0 1 350.32,204.68 A9.221,9.221 0 0 1 334.552,202.805 A30.794,30.794 0 0 0 286.352,191.835 A47.102,47.102 0 0 0 270.424,234.767 A30.794,30.794 0 0 0 314.116,257.889 A30.794,30.794 0 0 0 323.652,209.385" stroke="#355c55" stroke-width="1.6" stroke-opacity="0.78" data-verse="8"/><path d="M323.652,209.385 A107.789,107.789 0 0 1 303.435,177.145 A9.221,9.221 0 0 1 313.1,164.548 A18.916,18.916 0 0 1 329.695,184.588 A30.794,30.794 0 0 0 367.316,216.654 A30.794,30.794 0 0 0 387.167,171.382 A47.102,47.102 0 0 0 348.003,147.654 A18.916,18.916 0 0 1 329.792,129.071 A9.221,9.221 0 0 1 343.324,120.764 A18.916,18.916 0 0 1 351.653,145.413 A107.789,107.789 0 0 1 329.854,176.605" stroke="#355c55" stroke-width="1.6" stroke-opacity="0.78" data-verse="9"/><path d="M329.854,176.605 A9.221,9.221 0 0 1 314.485,172.619 A47.102,47.102 0 0 0 282.036,140.309 A47.102,47.102 0 0 0 237.471,150.836 A33.132,33.132 0 0 0 256.731,208.302 A33.132,33.132 0 0 0 286.265,155.377 A9.221,9.221 0 0 1 292.323,140.701 A9.221,9.221 0 0 1 302.256,153.088 A30.794,30.794 0 0 0 328.949,194.695 A107.789,107.789 0 0 1 365.857,203.967 A107.789,107.789 0 0 1 397.242,225.486 A107.789,107.789 0 0 1 419.193,256.571 A107.789,107.789 0 0 1 428.975,293.347 A107.789,107.789 0 0 1 425.367,331.23 A30.794,30.794 0 0 0 455.648,370.303" stroke="#355c55" stroke-width="1.6" stroke-opacity="0.78" data-verse="10"/><path d="M455.648,370.303 A9.221,9.221 0 0 1 464,383.807 A47.102,47.102 0 0 0 465.115,429.585 A30.794,30.794 0 0 0 514.265,434.87 A30.794,30.794 0 0 0 505.148,386.285 A30.794,30.794 0 0 0 461.258,409.029 A18.916,18.916 0 0 1 440.567,424.805 A18.916,18.916 0 0 1 423.697,404.996 A107.789,107.789 0 0 1 432.387,367.947 A9.221,9.221 0 0 1 448.14,365.954 A47.102,47.102 0 0 0 490.25,383.941 A30.794,30.794 0 0 0 515.46,341.42 A18.916,18.916 0 0 1 524.671,317.086 A47.102,47.102 0 0 0 551.001,279.622 A30.794,30.794 0 0 0 514.634,246.14" stroke="#355c55" stroke-width="1.6" stroke-opacity="0.78" data-verse="11"/><path d="M514.634,246.14 A9.221,9.221 0 0 1 504.149,234.216 A18.916,18.916 0 0 1 527.025,221.821 A18.916,18.916 0 0 1 540.638,243.995 A47.102,47.102 0 0 0 554.162,287.743" stroke="#355c55" stroke-width="1.6" stroke-opacity="0.78" data-verse="12"/><path d="M554.162,287.743 A18.916,18.916 0 0 1 555.437,313.731 A9.221,9.221 0 0 1 539.803,310.956 A107.789,107.789 0 0 1 532.97,273.52 A47.102,47.102 0 0 0 510.588,233.571" stroke="#355c55" stroke-width="1.6" stroke-opacity="0.78" data-verse="13"/><path d="M510.588,233.571 A18.916,18.916 0 0 1 503.901,208.426 A30.794,30.794 0 0 0 483.149,163.56 A30.794,30.794 0 0 0 446.176,196.373" stroke="#355c55" stroke-width="1.6" stroke-opacity="0.78" data-verse="14"/><path d="M446.176,196.373 A9.221,9.221 0 0 1 433.257,205.604 A47.102,47.102 0 0 0 387.655,209.761 A30.794,30.794 0 0 0 385.65,259.154" stroke="#355c55" stroke-width="1.6" stroke-opacity="0.78" data-verse="15"/><path d="M385.65,259.154 A107.789,107.789 0 0 1 410.561,287.921 A18.916,18.916 0 0 1 404.828,313.301 A107.789,107.789 0 0 1 369.971,328.567" stroke="#355c55" stroke-width="1.6" stroke-opacity="0.78" data-verse="16"/><path d="M369.971,328.567 A9.221,9.221 0 0 1 358.929,317.158 A107.789,107.789 0 0 1 375.328,282.818 A107.789,107.789 0 0 1 402.639,256.318 A30.794,30.794 0 0 0 404.922,206.938" stroke="#355c55" stroke-width="1.6" stroke-opacity="0.78" data-verse="17"/><path d="M404.922,206.938 A47.102,47.102 0 0 0 359.852,198.844 A47.102,47.102 0 0 0 329.204,232.866" stroke="#355c55" stroke-width="1.6" stroke-opacity="0.78" data-verse="18"/><path d="M329.204,232.866 A9.221,9.221 0 0 1 314.073,237.68 A47.102,47.102 0 0 0 269.4,227.619 A47.102,47.102 0 0 0 237.291,260.266 A9.221,9.221 0 0 1 221.964,264.413 A47.102,47.102 0 0 0 177.775,252.405" stroke="#355c55" stroke-width="1.6" stroke-opacity="0.78" data-verse="19"/><path d="M177.775,252.405 A47.102,47.102 0 0 0 144.266,283.614 A9.221,9.221 0 0 1 128.772,287.085 A30.794,30.794 0 0 0 79.665,292.754 A107.789,107.789 0 0 1 55.103,321.82" stroke="#355c55" stroke-width="1.6" stroke-opacity="0.78" data-verse="20"/><path d="M55.103,321.82 A9.221,9.221 0 0 1 40.163,316.445 A9.221,9.221 0 0 1 52.08,305.952 A47.102,47.102 0 0 0 97.026,297.194 A107.789,107.789 0 0 1 130.001,278.2" stroke="#355c55" stroke-width="1.6" stroke-opacity="0.78" data-verse="21"/><path d="M130.001,278.2 A9.221,9.221 0 0 1 142.227,288.331 A18.916,18.916 0 0 1 121.578,304.162 A47.102,47.102 0 0 0 79.461,322.134" stroke="#355c55" stroke-width="1.6" stroke-opacity="0.78" data-verse="22"/></g></svg>