<svg xmlns="http://www.w3.org/2000/svg" width="1200" height="960" viewBox="0 0 600 480" role="img" aria-label="Al-&apos;Alaq — Verse Lines"><title>Al-&apos;Alaq — Verse Lines</title><desc>Verse Lines generated from all 72 written words in surah 96.</desc><metadata>{&quot;surah&quot;:96,&quot;name&quot;:&quot;Al-&apos;Alaq&quot;,&quot;method&quot;:&quot;Verse Lines&quot;,&quot;words&quot;:72,&quot;letters&quot;:285,&quot;selectedVerse&quot;:null,&quot;mapping&quot;:&quot;For verse index i starting at 0, L=sum(word lengths); centered endpoints=(-3L,12i),(+3L,12i), so length=6L; uniformly fit all endpoints into [40,560]x[30,450], retaining length ratios; row stroke width=max(.45,min(1.6,.65*12*fitScale)); word boundaries at x=-3L+6*cumulativeWordLength are decorative paper-color breaks of width1 and height(rowStrokeWidth+1.4), drawn only when both neighboring words are at least3 SVG pixels wide; highlight selected verse in copper with width2.5; one verse remains a centered horizontal line&quot;,&quot;source&quot;:&quot;https://api.quran.com/api/v4/quran/verses/uthmani&quot;,&quot;counting&quot;:&quot;Unicode whitespace words; Unicode L letters except U+0640/U+06E5/U+06E6; no normalization&quot;}</metadata><rect width="600" height="480" fill="#f8f5ec"/><g fill="none" stroke-linecap="round" stroke-linejoin="round"><path d="M195,30 L405,30" stroke="#355c55" stroke-width="1.6" stroke-opacity="0.78" data-verse="1"/><path d="M218.333,53.333 L381.667,53.333" stroke="#355c55" stroke-width="1.6" stroke-opacity="0.78" data-verse="2"/><path d="M218.333,76.667 L381.667,76.667" stroke="#355c55" stroke-width="1.6" stroke-opacity="0.78" data-verse="3"/><path d="M224.167,100 L375.833,100" stroke="#355c55" stroke-width="1.6" stroke-opacity="0.78" data-verse="4"/><path d="M200.833,123.333 L399.167,123.333" stroke="#355c55" stroke-width="1.6" stroke-opacity="0.78" data-verse="5"/><path d="M206.667,146.667 L393.333,146.667" stroke="#355c55" stroke-width="1.6" stroke-opacity="0.78" data-verse="6"/><path d="M230,170 L370,170" stroke="#355c55" stroke-width="1.6" stroke-opacity="0.78" data-verse="7"/><path d="M218.333,193.333 L381.667,193.333" stroke="#355c55" stroke-width="1.6" stroke-opacity="0.78" data-verse="8"/><path d="M224.167,216.667 L375.833,216.667" stroke="#355c55" stroke-width="1.6" stroke-opacity="0.78" data-verse="9"/><path d="M241.667,240 L358.333,240" stroke="#355c55" stroke-width="1.6" stroke-opacity="0.78" data-verse="10"/><path d="M195,263.333 L405,263.333" stroke="#355c55" stroke-width="1.6" stroke-opacity="0.78" data-verse="11"/><path d="M230,286.667 L370,286.667" stroke="#355c55" stroke-width="1.6" stroke-opacity="0.78" data-verse="12"/><path d="M212.5,310 L387.5,310" stroke="#355c55" stroke-width="1.6" stroke-opacity="0.78" data-verse="13"/><path d="M200.833,333.333 L399.167,333.333" stroke="#355c55" stroke-width="1.6" stroke-opacity="0.78" data-verse="14"/><path d="M148.333,356.667 L451.667,356.667" stroke="#355c55" stroke-width="1.6" stroke-opacity="0.78" data-verse="15"/><path d="M218.333,380 L381.667,380" stroke="#355c55" stroke-width="1.6" stroke-opacity="0.78" data-verse="16"/><path d="M241.667,403.333 L358.333,403.333" stroke="#355c55" stroke-width="1.6" stroke-opacity="0.78" data-verse="17"/><path d="M230,426.667 L370,426.667" stroke="#355c55" stroke-width="1.6" stroke-opacity="0.78" data-verse="18"/><path d="M183.333,450 L416.667,450" stroke="#355c55" stroke-width="1.6" stroke-opacity="0.78" data-verse="19"/><path d="M241.667,28.5 L241.667,31.5 M288.333,28.5 L288.333,31.5 M323.333,28.5 L323.333,31.5 M370,28.5 L370,31.5" stroke="#f8f5ec" stroke-width="1" stroke-opacity="1" data-verse="1"/><path d="M253.333,51.833 L253.333,54.833 M323.333,51.833 L323.333,54.833 M346.667,51.833 L346.667,54.833" stroke="#f8f5ec" stroke-width="1" stroke-opacity="1" data-verse="2"/><path d="M265,75.167 L265,78.167 M311.667,75.167 L311.667,78.167" stroke="#f8f5ec" stroke-width="1" stroke-opacity="1" data-verse="3"/><path d="M270.833,98.5 L270.833,101.5 M305.833,98.5 L305.833,101.5" stroke="#f8f5ec" stroke-width="1" stroke-opacity="1" data-verse="4"/><path d="M235.833,121.833 L235.833,124.833 M305.833,121.833 L305.833,124.833 M329.167,121.833 L329.167,124.833 M352.5,121.833 L352.5,124.833" stroke="#f8f5ec" stroke-width="1" stroke-opacity="1" data-verse="5"/><path d="M241.667,145.167 L241.667,148.167 M265,145.167 L265,148.167 M335,145.167 L335,148.167" stroke="#f8f5ec" stroke-width="1" stroke-opacity="1" data-verse="6"/><path d="M253.333,168.5 L253.333,171.5 M300,168.5 L300,171.5" stroke="#f8f5ec" stroke-width="1" stroke-opacity="1" data-verse="7"/><path d="M241.667,191.833 L241.667,194.833 M276.667,191.833 L276.667,194.833 M311.667,191.833 L311.667,194.833" stroke="#f8f5ec" stroke-width="1" stroke-opacity="1" data-verse="8"/><path d="M282.5,215.167 L282.5,218.167 M329.167,215.167 L329.167,218.167" stroke="#f8f5ec" stroke-width="1" stroke-opacity="1" data-verse="9"/><path d="M288.333,238.5 L288.333,241.5 M323.333,238.5 L323.333,241.5" stroke="#f8f5ec" stroke-width="1" stroke-opacity="1" data-verse="10"/><path d="M253.333,261.833 L253.333,264.833 M276.667,261.833 L276.667,264.833 M311.667,261.833 L311.667,264.833 M346.667,261.833 L346.667,264.833" stroke="#f8f5ec" stroke-width="1" stroke-opacity="1" data-verse="11"/><path d="M253.333,285.167 L253.333,288.167 M288.333,285.167 L288.333,288.167" stroke="#f8f5ec" stroke-width="1" stroke-opacity="1" data-verse="12"/><path d="M270.833,308.5 L270.833,311.5 M294.167,308.5 L294.167,311.5 M329.167,308.5 L329.167,311.5" stroke="#f8f5ec" stroke-width="1" stroke-opacity="1" data-verse="13"/><path d="M235.833,331.833 L235.833,334.833 M282.5,331.833 L282.5,334.833 M317.5,331.833 L317.5,334.833 M364.167,331.833 L364.167,334.833" stroke="#f8f5ec" stroke-width="1" stroke-opacity="1" data-verse="14"/><path d="M183.333,355.167 L183.333,358.167 M218.333,355.167 L218.333,358.167 M241.667,355.167 L241.667,358.167 M288.333,355.167 L288.333,358.167 M358.333,355.167 L358.333,358.167" stroke="#f8f5ec" stroke-width="1" stroke-opacity="1" data-verse="15"/><path d="M276.667,378.5 L276.667,381.5 M323.333,378.5 L323.333,381.5" stroke="#f8f5ec" stroke-width="1" stroke-opacity="1" data-verse="16"/><path d="M300,401.833 L300,404.833" stroke="#f8f5ec" stroke-width="1" stroke-opacity="1" data-verse="17"/><path d="M276.667,425.167 L276.667,428.167" stroke="#f8f5ec" stroke-width="1" stroke-opacity="1" data-verse="18"/><path d="M218.333,448.5 L218.333,451.5 M241.667,448.5 L241.667,451.5 M288.333,448.5 L288.333,451.5 M346.667,448.5 L346.667,451.5" stroke="#f8f5ec" stroke-width="1" stroke-opacity="1" data-verse="19"/></g></svg>